<?xml version="1.0" standalone="no"?>
<!DOCTYPE svg PUBLIC "-//W3C//DTD SVG 20010904//EN"
 "http://www.w3.org/TR/2001/REC-SVG-20010904/DTD/svg10.dtd">
<svg version="1.0" xmlns="http://www.w3.org/2000/svg"
 width="260.000000pt" height="260.000000pt" viewBox="0 0 260.000000 260.000000"
 preserveAspectRatio="xMidYMid meet">
<metadata>
Created by potrace 1.11, written by Peter Selinger 2001-2013
</metadata>
<g transform="translate(0.000000,260.000000) scale(0.100000,-0.100000)"
fill="#000000" stroke="none">
<path d="M820 2547 c-454 -8 -524 -15 -580 -56 -52 -38 -51 -8 -47 -871 3
-795 3 -806 25 -885 26 -95 80 -208 122 -252 51 -56 120 -103 239 -162 229
-115 638 -265 721 -264 82 0 492 148 719 261 127 63 213 121 252 173 41 54 88
154 112 238 21 75 22 91 25 894 l3 818 -34 34 c-18 18 -51 38 -72 45 -81 25
-856 39 -1485 27z m743 -496 c90 -24 190 -70 238 -110 l33 -28 -74 -114 c-41
-63 -75 -116 -76 -118 -2 -2 -29 19 -61 46 -32 27 -74 59 -94 71 -77 46 -225
65 -314 41 -22 -6 -56 -28 -77 -49 -34 -33 -38 -43 -38 -87 0 -48 15 -82 50
-111 24 -20 71 -40 278 -113 106 -37 217 -82 247 -99 80 -46 142 -111 178
-188 30 -62 32 -75 32 -172 0 -98 -2 -109 -30 -158 -56 -102 -178 -188 -321
-227 -32 -9 -111 -18 -174 -22 -256 -13 -467 49 -609 180 l-41 37 91 110 c51
61 94 110 97 110 2 0 33 -27 69 -60 115 -105 252 -158 381 -147 124 10 192 70
192 169 0 83 -60 132 -240 196 -337 119 -447 190 -513 330 -112 239 28 456
338 528 91 21 337 13 438 -15z"/>
</g>
</svg>
