<?xml version="1.0" encoding="UTF-8"?>
<svg width="18px" height="18px" viewBox="0 0 18 18" version="1.1" xmlns="http://www.w3.org/2000/svg" xmlns:xlink="http://www.w3.org/1999/xlink">
    <!-- Generator: sketchtool 51.3 (57544) - http://www.bohemiancoding.com/sketch -->
    <title>4BD39F38-8AA5-4E80-B682-F59B124A4C5A</title>
    <desc>Created with sketchtool.</desc>
    <defs>
        <path d="M3,2 C2.44771525,2 2,2.44771525 2,3 L2,10 C2,10.5522847 2.44771525,11 3,11 L10,11 C10.5522847,11 11,10.5522847 11,10 L11,3 C11,2.44771525 10.5522847,2 10,2 L3,2 Z M3,0 L10,0 C11.6568542,-3.33066907e-16 13,1.34314575 13,3 L13,10 C13,11.6568542 11.6568542,13 10,13 L3,13 C1.34314575,13 0,11.6568542 0,10 L0,3 C-3.33066907e-16,1.34314575 1.34314575,0 3,0 Z M5,15 C5,14.4477153 5.44771525,14 6,14 C6.55228475,14 7,14.4477153 7,15 C7,15.5522847 7.44771525,16 8,16 L15,16 C15.5522847,16 16,15.5522847 16,15 L16,8 C16,7.44771525 15.5522847,7 15,7 C14.4477153,7 14,6.55228475 14,6 C14,5.44771525 14.4477153,5 15,5 C16.6568542,5 18,6.34314575 18,8 L18,15 C18,16.6568542 16.6568542,18 15,18 L8,18 C6.34314575,18 5,16.6568542 5,15 Z" id="path-1"></path>
    </defs>
    <g id="Performance-Review" stroke="none" stroke-width="1" fill="none" fill-rule="evenodd">
        <g id="performance-reviews---admin---new-review---questionnaire---edit-template" transform="translate(-1306.000000, -458.000000)">
            <g id="block" transform="translate(445.000000, 287.000000)">
                <g id="row" transform="translate(30.000000, 168.000000)">
                    <g id="icon-/-duplicate" transform="translate(830.000000, 2.000000)">
                        <rect id="Background" x="0" y="0" width="20" height="20"></rect>
                        <g id="icon-duplicate" transform="translate(1.000000, 1.000000)">
                            <g id="color">
                                <mask id="mask-2" fill="white">
                                    <use xlink:href="#path-1"></use>
                                </mask>
                                <use id="Combined-Shape" fill="#C4CDD5" fill-rule="nonzero" xlink:href="#path-1"></use>
                                <g mask="url(#mask-2)">
                                    <g transform="translate(-1.000000, -1.000000)">
                                        <rect id="Background" fill="none" x="0" y="0" width="20" height="20"></rect>
                                        <rect id="color-/-grey" fill="#8A8E91" fill-rule="nonzero" x="0" y="0" width="20" height="20"></rect>
                                    </g>
                                </g>
                            </g>
                        </g>
                    </g>
                </g>
            </g>
        </g>
    </g>
</svg>