<?xml version="1.0" encoding="UTF-8"?>
<svg width="70px" height="100px" viewBox="0 0 70 100" version="1.1" xmlns="http://www.w3.org/2000/svg" xmlns:xlink="http://www.w3.org/1999/xlink">
    <!-- Generator: sketchtool 51.2 (57519) - http://www.bohemiancoding.com/sketch -->
    <title>ACFF71FF-D99B-4644-AC89-405C5209D54B</title>
    <desc>Created with sketchtool.</desc>
    <defs></defs>
    <g id="Performance-Review" stroke="none" stroke-width="1" fill="none" fill-rule="evenodd">
        <g id="home" transform="translate(-925.000000, -308.000000)" fill-rule="nonzero">
            <g id="block" transform="translate(445.000000, 60.000000)">
                <g id="post">
                    <g transform="translate(365.000000, 218.000000)">
                        <g id="icon-performance-review" transform="translate(115.000000, 30.000000)">
                            <path d="M66.5921053,17.1296296 L66.5921053,87.5925926 C66.5921053,92.6851852 62.4473684,96.8518519 57.3815789,96.8518519 L12.6184211,96.8518519 C7.55263158,96.8518519 3.40789474,92.6851852 3.40789474,87.5925926 L3.40789474,17.1296296" id="Shape" fill="#FFFFFF"></path>
                            <polyline id="Shape" fill="#E1E1E5" points="19.8026316 17.1296296 19.8026316 25.462963 50.1973684 25.462963 50.1973684 17.1296296"></polyline>
                            <ellipse id="Oval" fill="#FFFFFF" cx="35" cy="9.72222222" rx="6.44736842" ry="6.48148148"></ellipse>
                            <ellipse id="Oval" fill="#F37778" cx="20.2631579" cy="39.4444444" rx="4.60526316" ry="4.62962963"></ellipse>
                            <ellipse id="Oval" fill="#F37778" cx="20.2631579" cy="60.462963" rx="4.60526316" ry="4.62962963"></ellipse>
                            <g id="Group">
                                <path d="M57.3815789,99.537037 L12.6184211,99.537037 C5.98684211,99.537037 0.644736842,94.1666667 0.644736842,87.5 L0.644736842,26.3888889 C0.644736842,19.7222222 5.98684211,14.3518519 12.6184211,14.3518519 L57.4736842,14.3518519 C64.1052632,14.3518519 69.4473684,19.7222222 69.4473684,26.3888889 L69.4473684,87.5925926 C69.3552632,94.1666667 64.0131579,99.537037 57.3815789,99.537037 Z M12.6184211,19.9074074 C9.02631579,19.9074074 6.17105263,22.7777778 6.17105263,26.3888889 L6.17105263,87.5925926 C6.17105263,91.2037037 9.02631579,94.0740741 12.6184211,94.0740741 L57.4736842,94.0740741 C61.0657895,94.0740741 63.9210526,91.2037037 63.9210526,87.5925926 L63.9210526,26.3888889 C63.9210526,22.7777778 61.0657895,19.9074074 57.4736842,19.9074074 L12.6184211,19.9074074 Z" id="Shape" fill="#454B54"></path>
                                <path d="M19.8026316,28.2407407 C19.0657895,28.2407407 18.3289474,27.962963 17.8684211,27.4074074 C17.3157895,26.8518519 17.0394737,26.2037037 17.0394737,25.462963 L17.0394737,17.1296296 C17.0394737,15.5555556 18.2368421,14.3518519 19.8026316,14.3518519 L50.1973684,14.3518519 C51.7631579,14.3518519 52.9605263,15.5555556 52.9605263,17.1296296 L52.9605263,25.462963 C52.9605263,27.037037 51.7631579,28.2407407 50.1973684,28.2407407 L19.8026316,28.2407407 Z M22.5657895,19.9074074 L22.5657895,22.6851852 L47.4342105,22.6851852 L47.4342105,19.9074074 L22.5657895,19.9074074 Z" id="Shape" fill="#454B54"></path>
                                <path d="M52.5,42.2222222 L35.9210526,42.2222222 C34.3552632,42.2222222 33.1578947,41.0185185 33.1578947,39.4444444 C33.1578947,37.8703704 34.3552632,36.6666667 35.9210526,36.6666667 L52.5,36.6666667 C54.0657895,36.6666667 55.2631579,37.8703704 55.2631579,39.4444444 C55.2631579,41.0185185 54.0657895,42.2222222 52.5,42.2222222 Z" id="Shape" fill="#454B54"></path>
                                <path d="M52.5,63.0555556 L35.9210526,63.0555556 C34.3552632,63.0555556 33.1578947,61.8518519 33.1578947,60.2777778 C33.1578947,58.7037037 34.3552632,57.5 35.9210526,57.5 L52.5,57.5 C54.0657895,57.5 55.2631579,58.7037037 55.2631579,60.2777778 C55.2631579,61.8518519 54.0657895,63.0555556 52.5,63.0555556 Z" id="Shape" fill="#454B54"></path>
                                <path d="M52.5,83.8888889 L35.9210526,83.8888889 C34.3552632,83.8888889 33.1578947,82.6851852 33.1578947,81.1111111 C33.1578947,79.537037 34.3552632,78.3333333 35.9210526,78.3333333 L52.5,78.3333333 C54.0657895,78.3333333 55.2631579,79.537037 55.2631579,81.1111111 C55.2631579,82.6851852 54.0657895,83.8888889 52.5,83.8888889 Z" id="Shape" fill="#454B54"></path>
                                <path d="M20.2631579,88.4259259 C19.3421053,88.4259259 18.5131579,88.0555556 17.9605263,87.3148148 L12.5263158,80 C11.6052632,78.7962963 11.8815789,77.037037 13.0789474,76.1111111 C14.2763158,75.1851852 16.0263158,75.462963 16.9473684,76.6666667 L20.1710526,80.9259259 L25.3289474,73.0555556 C26.1578947,71.7592593 27.9078947,71.3888889 29.1973684,72.3148148 C30.4868421,73.1481481 30.8552632,74.9074074 29.9342105,76.2037037 L22.6578947,87.2222222 C22.1973684,87.962963 21.2763158,88.4259259 20.3552632,88.5185185 C20.3552632,88.4259259 20.2631579,88.4259259 20.2631579,88.4259259 Z" id="Shape" fill="#98BED8"></path>
                                <path d="M35,18.9814815 C29.9342105,18.9814815 25.7894737,14.8148148 25.7894737,9.72222222 C25.7894737,4.62962963 29.9342105,0.462962963 35,0.462962963 C40.0657895,0.462962963 44.2105263,4.62962963 44.2105263,9.72222222 C44.2105263,14.8148148 40.0657895,18.9814815 35,18.9814815 Z M35,6.01851852 C32.9736842,6.01851852 31.3157895,7.68518519 31.3157895,9.72222222 C31.3157895,11.7592593 32.9736842,13.4259259 35,13.4259259 C37.0263158,13.4259259 38.6842105,11.7592593 38.6842105,9.72222222 C38.6842105,7.68518519 37.0263158,6.01851852 35,6.01851852 Z" id="Shape" fill="#454B54"></path>
                            </g>
                        </g>
                    </g>
                </g>
            </g>
        </g>
    </g>
</svg>