<?xml version="1.0" encoding="UTF-8"?>
<svg width="17px" height="20px" viewBox="0 0 17 20" version="1.1" xmlns="http://www.w3.org/2000/svg" xmlns:xlink="http://www.w3.org/1999/xlink">
    <!-- Generator: sketchtool 51.2 (57519) - http://www.bohemiancoding.com/sketch -->
    <title>C84A660C-8167-4501-890C-3CFFB4033460</title>
    <desc>Created with sketchtool.</desc>
    <defs></defs>
    <g id="Performance-Review" stroke="none" stroke-width="1" fill="none" fill-rule="evenodd">
        <g id="performance-reviews---admin---company---details" transform="translate(-1187.000000, -274.000000)" fill="#FFFFFF" fill-rule="nonzero">
            <g id="dropdown" transform="translate(1163.000000, 130.000000)">
                <g id="row" transform="translate(24.000000, 142.000000)">
                    <g id="icon-archive" transform="translate(0.000000, 2.000000)">
                        <path d="M0,0 L0,20 L17,20 L17,0 L0,0 Z M1.7,1.66666667 L15.3,1.66666667 L15.3,5.83333333 L1.7,5.83333333 L1.7,1.66666667 Z M6.8,3.33333333 L6.8,5 L10.2,5 L10.2,3.33333333 L6.8,3.33333333 Z M1.7,7.5 L15.3,7.5 L15.3,12.5 L1.7,12.5 L1.7,7.5 Z M6.8,9.16666667 L6.8,10.8333333 L10.2,10.8333333 L10.2,9.16666667 L6.8,9.16666667 Z M1.7,14.1666667 L15.3,14.1666667 L15.3,18.3333333 L1.7,18.3333333 L1.7,14.1666667 Z M6.8,15 L6.8,16.6666667 L10.2,16.6666667 L10.2,15 L6.8,15 Z" id="Shape"></path>
                    </g>
                </g>
            </g>
        </g>
    </g>
</svg>