<?xml version="1.0" encoding="UTF-8"?>
<svg width="20px" height="20px" viewBox="0 0 20 20" version="1.1" xmlns="http://www.w3.org/2000/svg" xmlns:xlink="http://www.w3.org/1999/xlink">
    <!-- Generator: sketchtool 51.2 (57519) - http://www.bohemiancoding.com/sketch -->
    <title>23A596ED-B1FD-43A5-9440-4EBB3DA35A2B</title>
    <desc>Created with sketchtool.</desc>
    <defs></defs>
    <g id="Performance-Review" stroke="none" stroke-width="1" fill="none" fill-rule="evenodd">
        <g id="performance-reviews---admin---company---details" transform="translate(-1183.000000, -142.000000)" fill="#FFFFFF" fill-rule="nonzero">
            <g id="dropdown" transform="translate(1163.000000, 130.000000)">
                <g id="row" transform="translate(20.000000, 10.000000)">
                    <g id="icon-tag" transform="translate(0.000000, 2.000000)">
                        <path d="M10.8333333,0 L10.5729167,0.234375 L1.06770833,9.84375 L0.494791667,10.4166667 L1.06770833,11.015625 L8.984375,18.9322917 L9.58333333,19.5052083 L10.15625,18.9322917 L19.765625,9.42708333 L20,9.16666667 L20,0 L10.8333333,0 Z M11.5364583,1.66666667 L18.3333333,1.66666667 L18.3333333,8.46354167 L9.58333333,17.1614583 L2.83854167,10.4166667 L11.5364583,1.66666667 Z M15.8333333,3.33333333 C15.3743492,3.33333333 15,3.7076825 15,4.16666667 C15,4.62565083 15.3743492,5 15.8333333,5 C16.2923175,5 16.6666667,4.62565083 16.6666667,4.16666667 C16.6666667,3.7076825 16.2923175,3.33333333 15.8333333,3.33333333 Z" id="Shape"></path>
                    </g>
                </g>
            </g>
        </g>
    </g>
</svg>