<?xml version="1.0" encoding="UTF-8"?>
<svg width="14px" height="14px" viewBox="0 0 14 14" version="1.1" xmlns="http://www.w3.org/2000/svg" xmlns:xlink="http://www.w3.org/1999/xlink">
    <!-- Generator: sketchtool 51.2 (57519) - http://www.bohemiancoding.com/sketch -->
    <title>FFE61C17-B57A-4AFD-BBC7-063861FD4533</title>
    <desc>Created with sketchtool.</desc>
    <defs></defs>
    <g id="Performance-Review" stroke="none" stroke-width="1" fill="none" fill-rule="evenodd">
        <g id="home" transform="translate(-1355.000000, -887.000000)" fill="#8A8E91" fill-rule="nonzero">
            <g id="block" transform="translate(445.000000, 60.000000)">
                <g transform="translate(0.000000, 640.000000)" id="post">
                    <g transform="translate(30.000000, 106.000000)">
                        <g id="button/white/icon" transform="translate(860.000000, 71.000000)">
                            <g id="button/white-+-icon">
                                <g id="icon-pencil" transform="translate(20.000000, 10.000000)">
                                    <g id="Shape">
                                        <path d="M9.52,0.0175 L1.8725,7.665 L1.8375,7.8225 L0.7,12.635 L0.49,13.51 L1.365,13.3 L6.1775,12.1625 L6.335,12.1275 L13.9825,4.48 L13.195,3.6925 L6.475,10.395 C6.23437528,9.92031264 5.76406264,9.40187528 4.9875,9.0125 C4.64187528,8.24468736 4.11687528,7.73718736 3.6225,7.5075 L10.3075,0.805 L9.52,0.0175 Z M2.8525,8.435 C2.92906264,8.45468736 3.02093736,8.48312528 3.115,8.5225 C3.45625,8.66906264 3.84562528,8.93812528 4.0775,9.6075 L4.1475,9.835 L4.375,9.94 C5.11,10.26375 5.38343736,10.64875 5.5125,10.955 C5.54312528,11.025 5.56718736,11.0928126 5.5825,11.1475 L3.36,11.6725 L2.3275,10.64 L2.8525,8.435 Z"></path>
                                    </g>
                                </g>
                            </g>
                        </g>
                    </g>
                </g>
            </g>
        </g>
    </g>
</svg>