<?xml version="1.0" encoding="UTF-8"?>
<svg width="18px" height="19px" viewBox="0 0 18 19" version="1.1" xmlns="http://www.w3.org/2000/svg" xmlns:xlink="http://www.w3.org/1999/xlink">
    <!-- Generator: sketchtool 51.2 (57519) - http://www.bohemiancoding.com/sketch -->
    <title>720FB805-62F5-49B7-8E31-1654C03AF145</title>
    <desc>Created with sketchtool.</desc>
    <defs></defs>
    <g id="Performance-Review" stroke="none" stroke-width="1" fill="none" fill-rule="evenodd">
        <g id="performance-reviews---admin---company---details" transform="translate(-1184.000000, -143.000000)" stroke="#FFFFFF">
            <g id="dropdown" transform="translate(1163.000000, 130.000000)">
                <g id="row" transform="translate(20.000000, 10.000000)">
                    <g id="icon/filter-white" transform="translate(0.000000, 2.000000)">
                        <g id="icon-filter" transform="translate(1.000000, 1.000000)">
                            <path d="M2.00000596,0.75 C1.65509561,0.75 1.32551344,0.892515015 1.08926738,1.14381355 C0.616408664,1.64680058 0.640832484,2.43787986 1.14381951,2.91073858 L6.46239573,7.91073858 C6.69421287,8.12867016 7.00041027,8.25 7.31858218,8.25 L10.5203123,8.25 C10.8384842,8.25 11.1446816,8.12867016 11.3764987,7.91073858 L16.6950749,2.91073858 C16.9463735,2.67449252 17.0888885,2.34491035 17.0888885,2 C17.0888885,1.30964406 16.5292444,0.75 15.8388885,0.75 L2.00000596,0.75 Z" id="Rectangle-4" stroke-width="1.5" fill-rule="nonzero"></path>
                            <path d="M6.75,8.75 L6.75,16.5695898 C6.75,16.8318514 6.84998275,17.0842481 7.02958103,17.2753649 C7.41936981,17.6901526 8.07160791,17.7104182 8.4863956,17.3206294 L10.8560073,15.0938322 C11.1074146,14.8575771 11.25,14.5279211 11.25,14.1829253 L11.25,8.75 L6.75,8.75 Z" id="Rectangle-4" stroke-width="1.5" fill-rule="nonzero"></path>
                        </g>
                    </g>
                </g>
            </g>
        </g>
    </g>
</svg>