<?xml version="1.0" encoding="UTF-8"?>
<svg width="20px" height="20px" viewBox="0 0 20 20" version="1.1" xmlns="http://www.w3.org/2000/svg" xmlns:xlink="http://www.w3.org/1999/xlink">
    <!-- Generator: sketchtool 51.2 (57519) - http://www.bohemiancoding.com/sketch -->
    <title>D8BCFFEF-3815-4048-BB1E-5622AC2B987A</title>
    <desc>Created with sketchtool.</desc>
    <defs></defs>
    <g id="Performance-Review" stroke="none" stroke-width="1" fill="none" fill-rule="evenodd">
        <g id="performance-reviews---admin---company---details" transform="translate(-1184.000000, -186.000000)" fill="#FFFFFF" fill-rule="nonzero">
            <g id="dropdown" transform="translate(1163.000000, 130.000000)">
                <g id="row" transform="translate(21.000000, 54.000000)">
                    <g id="icon-edit" transform="translate(0.000000, 2.000000)">
                        <path d="M13.6,0.025 L2.675,10.95 L2.625,11.175 L1,18.05 L0.7,19.3 L1.95,19 L8.825,17.375 L9.05,17.325 L19.975,6.4 L18.85,5.275 L9.25,14.85 C8.9062504,14.1718752 8.2343752,13.4312504 7.125,12.875 C6.6312504,11.7781248 5.8812504,11.0531248 5.175,10.725 L14.725,1.15 L13.6,0.025 Z M4.075,12.05 C4.1843752,12.0781248 4.3156248,12.1187504 4.45,12.175 C4.9375,12.3843752 5.4937504,12.7687504 5.825,13.725 L5.925,14.05 L6.25,14.2 C7.3,14.6625 7.6906248,15.2125 7.875,15.65 C7.9187504,15.75 7.9531248,15.8468752 7.975,15.925 L4.8,16.675 L3.325,15.2 L4.075,12.05 Z" id="Shape"></path>
                    </g>
                </g>
            </g>
        </g>
    </g>
</svg>