<?xml version="1.0" encoding="UTF-8"?>
<svg width="78px" height="92px" viewBox="0 0 78 92" version="1.1" xmlns="http://www.w3.org/2000/svg" xmlns:xlink="http://www.w3.org/1999/xlink">
    <!-- Generator: sketchtool 51.2 (57519) - http://www.bohemiancoding.com/sketch -->
    <title>7572C934-7383-4164-9780-25B3F0E989B8</title>
    <desc>Created with sketchtool.</desc>
    <defs></defs>
    <g id="Performance-Review" stroke="none" stroke-width="1" fill="none" fill-rule="evenodd">
        <g id="home---blank" transform="translate(-932.000000, -287.000000)" fill-rule="nonzero">
            <g id="block" transform="translate(445.000000, 290.000000)">
                <g id="icon-cup" transform="translate(490.000000, 0.000000)">
                    <path d="M8.14015522e-13,72.2488158 C4.43231684,73.6170899 9.86997976,74 15.7460634,74 C30.6577517,74 42.7460634,71.5341055 42.7460634,56.7567568 C42.7460634,56.5036684 42.7425176,56.2514008 42.7354725,56 L42.7460634,56 L42.7460634,38 L53.7460634,38 L53.7460634,68 L53.7354725,68 C53.7425176,68.2514008 53.7460634,68.5036684 53.7460634,68.7567568 C53.7460634,83.5341055 41.6577517,86 26.7460634,86 C13.0958852,86 1.81158198,83.9336803 7.82957033e-13,72.2488158 Z" id="Combined-Shape" fill-opacity="0.5" fill="#DFB276"></path>
                    <path d="M-9.42135259e-13,67.9840411 C0.660353777,67.9949817 1.32730397,68 2,68 C16.9116882,68 29,65.5341055 29,50.7567568 C29,50.5036684 28.9964542,50.2514008 28.9894091,50 L29,50 L29,38 L54,38 L54,68 L53.9894091,68 C53.9964542,68.2514008 54,68.5036684 54,68.7567568 C54,83.5341055 41.9116882,86 27,86 C12.0883118,86 0,83.5341055 0,68.7567568 C0,68.5036684 0.00354582154,68.2514008 0.01059092,68 L0,68 L0,67.9840411 Z" id="Combined-Shape" fill-opacity="0.5" fill="#DFB276"></path>
                    <path d="M54,45.3308426 C66,43.9612219 72,46.8440629 72,53.9793656 C72,64.1773962 66,69.9430782 54,71.2764116" id="Path-7" stroke="#454B54" stroke-width="5" stroke-linecap="round"></path>
                    <path d="M53.9894091,68 C53.9964542,68.2514008 54,68.5036684 54,68.7567568 C54,83.5341055 41.9116882,86 27,86 C12.0883118,86 0,83.5341055 0,68.7567568 C0,68.5036684 0.00354582154,68.2514008 0.01059092,68 L0,68 L0,38 L54,38 L54,68 L53.9894091,68 Z" id="Combined-Shape" stroke="#454B54" stroke-width="5" stroke-linecap="round" stroke-linejoin="round"></path>
                    <path d="M23.5,0 C17.8333333,2.40434967 15,5.51245778 15,9.32432432 C15,15.0421241 23.5,16.2162162 23.5,21.0810811 C23.5,24.3243243 22.0833333,27.2972973 19.25,30" id="Path-6" stroke="#454B54" stroke-width="5" stroke-linecap="round"></path>
                    <path d="M33,14 C30.3333333,15.2021748 29,16.7562289 29,18.6621622 C29,21.5210621 33,22.1081081 33,24.5405405 C33,26.1621622 32.3333333,27.6486486 31,29" id="Path-6" stroke="#454B54" stroke-width="5" stroke-linecap="round"></path>
                </g>
            </g>
        </g>
    </g>
</svg>