<?xml version="1.0" encoding="UTF-8"?>
<svg width="100px" height="90px" viewBox="0 0 100 90" version="1.1" xmlns="http://www.w3.org/2000/svg" xmlns:xlink="http://www.w3.org/1999/xlink">
    <!-- Generator: sketchtool 51.2 (57519) - http://www.bohemiancoding.com/sketch -->
    <title>0765239E-7B8E-475A-BEBD-5BDEE183F836</title>
    <desc>Created with sketchtool.</desc>
    <defs></defs>
    <g id="Performance-Review" stroke="none" stroke-width="1" fill="none" fill-rule="evenodd">
        <g id="home" transform="translate(-576.000000, -313.000000)" fill-rule="nonzero">
            <g id="block" transform="translate(445.000000, 60.000000)">
                <g id="post">
                    <g transform="translate(30.000000, 218.000000)">
                        <g id="icon-1-1-meetings" transform="translate(101.000000, 35.000000)">
                            <path d="M11.2068966,19.9903846 L68.7068966,19.9903846 C73.4482759,19.9903846 77.3275862,23.8846154 77.3275862,28.6442308 L77.3275862,61.3557692 C77.3275862,66.1153846 73.4482759,70.0096154 68.7068966,70.0096154 L20.5172414,70.0096154 L20.5172414,87.3173077 L2.5862069,70.0096154 L2.5862069,28.6442308 C2.5862069,23.7980769 6.46551724,19.9903846 11.2068966,19.9903846 Z" id="Shape" fill="#E9E8F3"></path>
                            <path d="M18.362069,49.2403846 L18.362069,20.5096154 L20.6034483,20.5096154 L68.7931034,20.5096154 L68.7931034,61.3557692 L30.4310345,61.3557692 C23.7068966,61.3557692 18.362069,55.9038462 18.362069,49.2403846 Z" id="Shape" fill="#D8D4EA"></path>
                            <path d="M20.5172414,89.9134615 C19.9137931,89.9134615 19.2241379,89.6538462 18.7068966,89.2211538 L0.775862069,71.9134615 C0.25862069,71.3942308 0,70.7019231 0,70.0096154 L0,28.6442308 C0,22.4134615 5,17.3942308 11.2068966,17.3942308 L68.7068966,17.3942308 C74.9137931,17.3942308 79.9137931,22.4134615 79.9137931,28.6442308 L79.9137931,61.3557692 C79.9137931,67.5865385 74.9137931,72.6057692 68.7068966,72.6057692 L20.5172414,72.6057692 C19.0517241,72.6057692 17.9310345,71.4807692 17.9310345,70.0096154 C17.9310345,68.5384615 19.0517241,67.4134615 20.5172414,67.4134615 L68.7068966,67.4134615 C72.0689655,67.4134615 74.7413793,64.7307692 74.7413793,61.3557692 L74.7413793,28.6442308 C74.7413793,25.2692308 72.0689655,22.5865385 68.7068966,22.5865385 L11.2068966,22.5865385 C7.84482759,22.5865385 5.17241379,25.2692308 5.17241379,28.6442308 L5.17241379,68.9711538 L22.3275862,85.5 C23.362069,86.4519231 23.362069,88.0961538 22.4137931,89.1346154 C21.8965517,89.6538462 21.2068966,89.9134615 20.5172414,89.9134615 Z" id="Shape" fill="#454B54"></path>
                            <path d="M88.7931034,3.20192308 L35.6034483,3.20192308 C30.862069,3.20192308 26.9827586,7.09615385 26.9827586,11.8557692 L26.9827586,44.5673077 C26.9827586,49.3269231 30.862069,53.2211538 35.6034483,53.2211538 L88.1034483,53.2211538 L97.4137931,70.875 L97.4137931,11.8557692 C97.4137931,7.09615385 93.5344828,3.20192308 88.7931034,3.20192308 Z" id="Shape" fill="#FFFFFF"></path>
                            <path d="M97.4137931,73.4711538 C95.9482759,73.4711538 94.8275862,72.3461538 94.8275862,70.875 L94.8275862,11.8557692 C94.8275862,8.48076923 92.1551724,5.79807692 88.7931034,5.79807692 L35.6034483,5.79807692 C32.2413793,5.79807692 29.5689655,8.48076923 29.5689655,11.8557692 L29.5689655,44.5673077 C29.5689655,47.9423077 32.2413793,50.625 35.6034483,50.625 L88.1034483,50.625 C89.5689655,50.625 90.6896552,51.75 90.6896552,53.2211538 C90.6896552,54.6923077 89.5689655,55.8173077 88.1034483,55.8173077 L35.6034483,55.8173077 C29.3965517,55.8173077 24.3965517,50.7980769 24.3965517,44.5673077 L24.3965517,11.8557692 C24.3965517,5.625 29.3965517,0.605769231 35.6034483,0.605769231 L88.7931034,0.605769231 C95,0.605769231 100,5.625 100,11.8557692 L100,70.9615385 C100,72.3461538 98.8793103,73.4711538 97.4137931,73.4711538 Z" id="Shape" fill="#454B54"></path>
                            <ellipse id="Oval" fill="#9FBAD3" cx="43.362069" cy="28.6442308" rx="4.13793103" ry="4.15384615"></ellipse>
                            <ellipse id="Oval" fill="#9FBAD3" cx="60" cy="28.6442308" rx="4.13793103" ry="4.15384615"></ellipse>
                            <ellipse id="Oval" fill="#9FBAD3" cx="76.637931" cy="28.6442308" rx="4.13793103" ry="4.15384615"></ellipse>
                        </g>
                    </g>
                </g>
            </g>
        </g>
    </g>
</svg>