<?xml version="1.0" encoding="UTF-8"?>
<svg width="100px" height="100px" viewBox="0 0 100 100" version="1.1" xmlns="http://www.w3.org/2000/svg" xmlns:xlink="http://www.w3.org/1999/xlink">
    <!-- Generator: sketchtool 51.2 (57519) - http://www.bohemiancoding.com/sketch -->
    <title>F72BBE33-86E6-4500-9816-89F2AE525B0C</title>
    <desc>Created with sketchtool.</desc>
    <defs></defs>
    <g id="Performance-Review" stroke="none" stroke-width="1" fill="none" fill-rule="evenodd">
        <g id="home" transform="translate(-1245.000000, -308.000000)" fill-rule="nonzero">
            <g id="block" transform="translate(445.000000, 60.000000)">
                <g id="post">
                    <g transform="translate(700.000000, 218.000000)">
                        <g id="icon-goals" transform="translate(100.000000, 30.000000)">
                            <circle id="Oval" fill="#8CCFB9" cx="50.3508772" cy="49.4736842" r="46.9298246"></circle>
                            <circle id="Oval" fill="#FFFFFF" cx="50.3508772" cy="49.4736842" r="31.3157895"></circle>
                            <circle id="Oval" fill="#F37C7E" cx="50.3508772" cy="49.4736842" r="15.6140351"></circle>
                            <path d="M50.0877193,99.4736842 C22.8070175,99.4736842 0.526315789,77.2807018 0.526315789,49.9122807 C0.526315789,22.5438596 22.8070175,0.350877193 50.0877193,0.350877193 C77.3684211,0.350877193 99.6491228,22.6315789 99.6491228,49.9122807 C99.7368421,77.2807018 77.4561404,99.4736842 50.0877193,99.4736842 Z M50.0877193,5.61403509 C25.6140351,5.61403509 5.78947368,25.5263158 5.78947368,49.9122807 C5.78947368,74.2982456 25.7017544,94.2105263 50.0877193,94.2105263 C74.4736842,94.2105263 94.3859649,74.2982456 94.3859649,49.9122807 C94.3859649,25.5263158 74.5614035,5.61403509 50.0877193,5.61403509 Z" id="Shape" fill="#464C55"></path>
                            <polygon id="Shape" fill="#F7F7FB" points="85.4385965 9.12280702 76.8421053 17.5438596 77.4561404 22.7192982 82.6315789 23.3333333 91.3157895 14.5614035 85.9649123 13.9473684"></polygon>
                            <path d="M93.5964912,14.2105263 C93.245614,13.245614 92.3684211,12.5438596 91.4035088,12.4561404 L88.3333333,12.1052632 L87.9824561,9.03508772 C87.8947368,8.07017544 87.1929825,7.19298246 86.2280702,6.84210526 C85.2631579,6.49122807 84.2105263,6.75438596 83.5087719,7.45614035 L74.8245614,16.0526316 C74.2105263,16.6666667 73.9473684,17.4561404 74.0350877,18.245614 L74.4736842,22.1052632 L48.245614,48.0701754 C47.1929825,49.0350877 47.1929825,50.7017544 48.245614,51.754386 C48.7719298,52.2807018 49.3859649,52.5438596 50.0877193,52.5438596 C50.7894737,52.5438596 51.4912281,52.2807018 51.9298246,51.754386 L78.1578947,25.7894737 L82.0175439,26.3157895 C82.1052632,26.3157895 82.2807018,26.3157895 82.3684211,26.3157895 C83.0701754,26.3157895 83.6842105,26.0526316 84.2982456,25.5263158 L92.9824561,16.9298246 C93.6842105,16.2280702 93.9473684,15.1754386 93.5964912,14.2105263 Z M81.4912281,20.877193 L79.6491228,20.6140351 L79.4736842,18.8596491 L83.3333333,15 C83.5087719,15.9649123 84.2982456,16.8421053 85.3508772,17.0175439 L81.4912281,20.877193 Z" id="Shape" fill="#464C55"></path>
                        </g>
                    </g>
                </g>
            </g>
        </g>
    </g>
</svg>