<?xml version="1.0" encoding="UTF-8"?>
<svg width="12px" height="12px" viewBox="0 0 12 12" version="1.1" xmlns="http://www.w3.org/2000/svg" xmlns:xlink="http://www.w3.org/1999/xlink">
    <!-- Generator: sketchtool 51.2 (57519) - http://www.bohemiancoding.com/sketch -->
    <title>F38B3E52-29EE-4946-B925-2FEB24F2251F</title>
    <desc>Created with sketchtool.</desc>
    <defs></defs>
    <g id="Performance-Review" stroke="none" stroke-width="1" fill="none" fill-rule="evenodd">
        <g id="performance-reviews---admin---preview" transform="translate(-1426.000000, -1584.000000)" fill="#8A8E91" fill-rule="nonzero">
            <g id="block" transform="translate(445.000000, 100.000000)">
                <g transform="translate(0.000000, 1435.000000)" id="row">
                    <g transform="translate(30.000000, 40.000000)">
                        <g id="icon-plus" transform="translate(944.000000, 2.000000)">
                            <path d="M12,12 L12,8 C12,7.44771525 12.4477153,7 13,7 C13.5522847,7 14,7.44771525 14,8 L14,12 L18,12 C18.5522847,12 19,12.4477153 19,13 C19,13.5522847 18.5522847,14 18,14 L14,14 L14,18 C14,18.5522847 13.5522847,19 13,19 C12.4477153,19 12,18.5522847 12,18 L12,14 L8,14 C7.44771525,14 7,13.5522847 7,13 C7,12.4477153 7.44771525,12 8,12 L12,12 Z" id="icon-plus2"></path>
                        </g>
                    </g>
                </g>
            </g>
        </g>
    </g>
</svg>