<?xml version="1.0" encoding="UTF-8"?>
<svg width="16px" height="16px" viewBox="0 0 16 16" version="1.1" xmlns="http://www.w3.org/2000/svg" xmlns:xlink="http://www.w3.org/1999/xlink">
    <!-- Generator: sketchtool 51.3 (57544) - http://www.bohemiancoding.com/sketch -->
    <title>C2B245ED-A2ED-47D6-B27D-2588C54C0A53</title>
    <desc>Created with sketchtool.</desc>
    <defs>
        <path d="M7.76568542,10.6343146 C8.07810486,10.946734 8.07810486,11.453266 7.76568542,11.7656854 C7.45326599,12.0781049 6.94673401,12.0781049 6.63431458,11.7656854 L2.63431458,7.76568542 C2.32189514,7.45326599 2.32189514,6.94673401 2.63431458,6.63431458 L9.03431458,0.234314575 C9.18434368,0.0842854723 9.38782681,0 9.6,0 L15.2,0 C15.6418278,0 16,0.3581722 16,0.8 L16,6.4 C16,6.61217319 15.9157145,6.81565632 15.7656854,6.96568542 L6.96568542,15.7656854 C6.65326599,16.0781049 6.14673401,16.0781049 5.83431458,15.7656854 L0.234314575,10.1656854 C-0.0781048584,9.85326599 -0.0781048584,9.34673401 0.234314575,9.03431458 L2.63431458,6.63431458 C2.94673401,6.32189514 3.45326599,6.32189514 3.76568542,6.63431458 C4.07810486,6.94673401 4.07810486,7.45326599 3.76568542,7.76568542 L1.93137085,9.6 L6.4,14.0686292 L14.4,6.06862915 L14.4,1.6 L9.93137085,1.6 L4.33137085,7.2 L7.76568542,10.6343146 Z M12,5.6 C11.1163444,5.6 10.4,4.8836556 10.4,4 C10.4,3.1163444 11.1163444,2.4 12,2.4 C12.8836556,2.4 13.6,3.1163444 13.6,4 C13.6,4.8836556 12.8836556,5.6 12,5.6 Z" id="path-1"></path>
    </defs>
    <g id="Performance-Review" stroke="none" stroke-width="1" fill="none" fill-rule="evenodd">
        <g id="performance-reviews---admin---new-review---questionnaire---edit-template" transform="translate(-1297.000000, -783.000000)">
            <g id="button-/-add" transform="translate(444.000000, 773.000000)">
                <g transform="translate(842.000000, 0.000000)" id="icon-/-edit">
                    <g transform="translate(11.000000, 10.000000)">
                        <g id="icon-category">
                            <mask id="mask-2" fill="white">
                                <use xlink:href="#path-1"></use>
                            </mask>
                            <use id="Mask" fill="#C4CDD5" fill-rule="nonzero" xlink:href="#path-1"></use>
                            <g id="color" mask="url(#mask-2)">
                                <rect id="Background" x="0" y="0" width="16" height="16"></rect>
                                <rect id="color/-white" fill="#FFFFFF" fill-rule="nonzero" x="0" y="0" width="16" height="16"></rect>
                            </g>
                        </g>
                    </g>
                </g>
            </g>
        </g>
    </g>
</svg>