<?xml version="1.0" encoding="UTF-8"?>
<svg width="24px" height="12px" viewBox="0 0 24 12" version="1.1" xmlns="http://www.w3.org/2000/svg" xmlns:xlink="http://www.w3.org/1999/xlink">
    <!-- Generator: sketchtool 51.2 (57519) - http://www.bohemiancoding.com/sketch -->
    <title>D0B529BA-283D-4B9B-880A-DDF1BF608FAB</title>
    <desc>Created with sketchtool.</desc>
    <defs></defs>
    <g id="Performance-Review" stroke="none" stroke-width="1" fill="none" fill-rule="evenodd">
        <g id="performance-reviews---admin---company---details" transform="translate(-1183.000000, -234.000000)" fill="#FFFFFF" fill-rule="nonzero">
            <g id="dropdown" transform="translate(1163.000000, 130.000000)">
                <g id="row" transform="translate(20.000000, 98.000000)">
                    <g id="icon-preview" transform="translate(0.000000, 6.000000)">
                        <path d="M12,0 C5.74804725,0 0.9375,5.5078125 0.9375,5.5078125 L0.4921875,6 L0.9375,6.4921875 C0.9375,6.4921875 5.323242,11.4931642 11.15625,11.953125 C11.4345705,11.9882812 11.712891,12 12,12 C12.2871097,12 12.5654295,11.9882812 12.84375,11.953125 C18.676758,11.4931642 23.0625,6.4921875 23.0625,6.4921875 L23.5078125,6 L23.0625,5.5078125 C23.0625,5.5078125 18.2519535,0 12,0 Z M12,1.5 C13.6523438,1.5 15.1757812,1.95117225 16.5,2.5546875 C16.9775392,3.3457035 17.25,4.25683575 17.25,5.25 C17.25,7.95996075 15.2167972,10.1865233 12.5859375,10.4765625 C12.5712892,10.479492 12.5537108,10.473633 12.5390625,10.4765625 C12.3603517,10.4853517 12.181641,10.5 12,10.5 C11.8007812,10.5 11.6074223,10.4882812 11.4140625,10.4765625 C8.7832035,10.1865233 6.75,7.95996075 6.75,5.25 C6.75,4.27148475 7.01367225,3.36035175 7.4765625,2.578125 L7.453125,2.578125 C8.7890625,1.962891 10.3300785,1.5 12,1.5 Z M12,3 C10.7578125,3 9.75,4.0078125 9.75,5.25 C9.75,6.4921875 10.7578125,7.5 12,7.5 C13.2421875,7.5 14.25,6.4921875 14.25,5.25 C14.25,4.0078125 13.2421875,3 12,3 Z M5.4375,3.703125 C5.3203125,4.20703125 5.25,4.713867 5.25,5.25 C5.25,6.5654295 5.625,7.79589825 6.28125,8.8359375 C4.39160175,7.74316425 3.07910175,6.4394535 2.6484375,6 C3.00878925,5.63085975 4.01367225,4.65234375 5.4375,3.703125 Z M18.5625,3.703125 C19.9863285,4.65234375 20.9912108,5.63085975 21.3515625,6 C20.9208983,6.4394535 19.6083983,7.74316425 17.71875,8.8359375 C18.375,7.79589825 18.75,6.5654295 18.75,5.25 C18.75,4.713867 18.6796875,4.20117225 18.5625,3.703125 Z" id="Shape"></path>
                    </g>
                </g>
            </g>
        </g>
    </g>
</svg>