<?xml version="1.0" encoding="UTF-8"?>
<svg width="70px" height="84px" viewBox="0 0 70 84" version="1.1" xmlns="http://www.w3.org/2000/svg" xmlns:xlink="http://www.w3.org/1999/xlink">
    <!-- Generator: sketchtool 51.2 (57519) - http://www.bohemiancoding.com/sketch -->
    <title>6B08583E-F72C-4868-BD2C-A953C9EE0831</title>
    <desc>Created with sketchtool.</desc>
    <defs></defs>
    <g id="Performance-Review" stroke="none" stroke-width="1" fill="none" fill-rule="evenodd">
        <g id="performance-reviews---reviewee---todo---blank" transform="translate(-925.000000, -373.000000)" fill-rule="nonzero">
            <g id="block" transform="translate(849.000000, 373.000000)">
                <g id="icon-todo" transform="translate(79.000000, 0.000000)">
                    <path d="M48,17 L56,17 C60.418278,17 64,20.581722 64,25 L64,73 C64,77.418278 60.418278,81 56,81 L8,81 C3.581722,81 5.41083001e-16,77.418278 0,73 L0,65 L40,65 C44.418278,65 48,61.418278 48,57 L48,17 Z" id="Combined-Shape" fill="#F3F1FF"></path>
                    <polyline id="Shape" fill="#E1E1E5" points="16.8026316 17.1296296 16.8026316 25.462963 47.1973684 25.462963 47.1973684 17.1296296"></polyline>
                    <g id="Group">
                        <rect id="Rectangle-3" stroke="#454B54" stroke-width="6" x="0" y="17" width="64" height="64" rx="9"></rect>
                        <path d="M16.8026316,28.2407407 C16.0657895,28.2407407 15.3289474,27.962963 14.8684211,27.4074074 C14.3157895,26.8518519 14.0394737,26.2037037 14.0394737,25.462963 L14.0394737,17.1296296 C14.0394737,15.5555556 15.2368421,14.3518519 16.8026316,14.3518519 L47.1973684,14.3518519 C48.7631579,14.3518519 49.9605263,15.5555556 49.9605263,17.1296296 L49.9605263,25.462963 C49.9605263,27.037037 48.7631579,28.2407407 47.1973684,28.2407407 L16.8026316,28.2407407 Z M19.5657895,19.9074074 L19.5657895,22.6851852 L44.4342105,22.6851852 L44.4342105,19.9074074 L19.5657895,19.9074074 Z" id="Shape" fill="#454B54"></path>
                        <path d="M32,18.9814815 C26.9342105,18.9814815 22.7894737,14.8148148 22.7894737,9.72222222 C22.7894737,4.62962963 26.9342105,0.462962963 32,0.462962963 C37.0657895,0.462962963 41.2105263,4.62962963 41.2105263,9.72222222 C41.2105263,14.8148148 37.0657895,18.9814815 32,18.9814815 Z M32,6.01851852 C29.9736842,6.01851852 28.3157895,7.68518519 28.3157895,9.72222222 C28.3157895,11.7592593 29.9736842,13.4259259 32,13.4259259 C34.0263158,13.4259259 35.6842105,11.7592593 35.6842105,9.72222222 C35.6842105,7.68518519 34.0263158,6.01851852 32,6.01851852 Z" id="Shape" fill="#454B54"></path>
                        <polyline id="Path-2" stroke="#10AC84" stroke-width="9" stroke-linecap="round" stroke-linejoin="round" points="19 53.375 27.7 62 48 39"></polyline>
                    </g>
                </g>
            </g>
        </g>
    </g>
</svg>