<?xml version="1.0" encoding="UTF-8"?>
<svg width="184px" height="140px" viewBox="0 0 184 140" version="1.1" xmlns="http://www.w3.org/2000/svg" xmlns:xlink="http://www.w3.org/1999/xlink">
    <!-- Generator: sketchtool 51.2 (57519) - http://www.bohemiancoding.com/sketch -->
    <title>F8F207AE-BE39-4D5D-8F5C-E51CCC6A95B7</title>
    <desc>Created with sketchtool.</desc>
    <defs></defs>
    <g id="Performance-Review" stroke="none" stroke-width="1" fill="none" fill-rule="evenodd">
        <g id="home---404" transform="translate(-867.000000, -280.000000)" fill-rule="nonzero">
            <g id="icon-404" transform="translate(868.000000, 280.000000)">
                <path d="M0.40217727,32.7354291 L33.0459599,119.560875 C34.1857949,122.592591 37.526068,124.172442 40.5927299,123.130276 L86.23884,107.61802 C88.9932287,106.681976 90.6793235,103.904913 90.2391797,101.029307 L76.9826246,14.4198141 C76.4812632,11.144253 73.4194625,8.89531972 70.1439014,9.39668112 C69.9874513,9.42062757 69.8320099,9.45075507 69.6779421,9.48699291 L4.64460443,24.7832957 C1.41892112,25.5419993 -0.580961062,28.7719831 0.177742558,31.9976664 C0.236656995,32.2481454 0.311623357,32.4945751 0.40217727,32.7354291 Z" id="Path-4" stroke="#C4CDD5" stroke-width="2"></path>
                <path d="M100,101.873767 L100,17.19037 C100,13.8766615 102.686292,11.19037 106,11.19037 C106.36025,11.19037 106.719767,11.2228148 107.074196,11.2873112 L177.088602,24.0280278 C180.348771,24.62129 182.510726,27.7451133 181.917464,31.0052827 C181.861201,31.3144701 181.780732,31.6187592 181.676802,31.9153413 L153.579835,112.094649 C152.593224,114.910106 149.687924,116.573024 146.760582,115.997812 L104.843143,107.761184 C102.02926,107.208266 100,104.741459 100,101.873767 Z" id="Path-6" stroke="#C4CDD5" stroke-width="2"></path>
                <path d="M45.2412034,27.8576799 L123.446137,20.6075848 C126.745697,20.3016946 129.668491,22.7285434 129.974382,26.0281032 C129.991451,26.2122309 130,26.3970492 130,26.5819664 L130,117.479401 C130,120.65068 127.532115,123.274328 124.366767,123.468181 L71.4829011,126.706915 C68.684353,126.878305 66.1402356,125.088682 65.3557651,122.39687 L40.0346978,35.5107964 C39.1075581,32.3294325 40.9349678,28.9988323 44.1163317,28.0716926 C44.4836089,27.9646577 44.860281,27.8929938 45.2412034,27.8576799 Z" id="Path-5" stroke="#0087FF" stroke-width="2" fill-opacity="0.6" fill="#FFFFFF" stroke-linecap="round" stroke-linejoin="round" stroke-dasharray="4,6"></path>
                <g id="Group" transform="translate(123.000000, 0.000000)" stroke="#0087FF" stroke-linecap="round">
                    <path d="M6.22727273,9.78571429 L10.7727273,7.21428571" id="Line-2"></path>
                    <path d="M3.22727273,8.75 L7.77272727,0.25" id="Line"></path>
                    <path d="M0.5,7 L0.5,2" id="Path-7"></path>
                </g>
                <g id="Group" transform="translate(64.000000, 135.500000) scale(-1, -1) translate(-64.000000, -135.500000) translate(59.000000, 131.000000)" stroke="#0087FF" stroke-linecap="round">
                    <path d="M5.22727273,8.78571429 L9.77272727,6.21428571" id="Line-2"></path>
                    <path d="M3.22727273,7.77777778 L7.77272727,0.222222222" id="Line"></path>
                    <path d="M0.5,7 L0.5,2" id="Path-7"></path>
                </g>
            </g>
        </g>
    </g>
</svg>