<?xml version="1.0" encoding="UTF-8"?>
<svg width="90px" height="101px" viewBox="0 0 90 101" version="1.1" xmlns="http://www.w3.org/2000/svg" xmlns:xlink="http://www.w3.org/1999/xlink">
    <!-- Generator: sketchtool 51.2 (57519) - http://www.bohemiancoding.com/sketch -->
    <title>4CDB3229-CF1C-4B63-B7EC-D6A2420E4D81</title>
    <desc>Created with sketchtool.</desc>
    <defs></defs>
    <g id="Performance-Review" stroke="none" stroke-width="1" fill="none" fill-rule="evenodd">
        <g id="home---reviewee" transform="translate(-487.000000, -284.000000)">
            <g id="block" transform="translate(445.000000, 283.000000)">
                <g id="post" transform="translate(30.000000, 0.000000)">
                    <g id="icons8-happy_document" transform="translate(14.000000, 0.000000)">
                        <g id="Group" transform="translate(43.000000, 50.000000) rotate(-10.000000) translate(-43.000000, -50.000000) translate(8.000000, 6.000000)">
                            <path d="M65.625,88 L4.375,88 C1.925,88 0,86.064 0,83.6 L0,4.4 C0,1.936 1.925,0 4.375,0 L52.5,0 L70,17.6 L70,83.6 C70,86.064 68.075,88 65.625,88 Z" id="Shape" fill="#FFFFFF" fill-rule="nonzero"></path>
                            <path d="M61.6875,20.24 L49.875,20.24 L49.875,0 L4.375,0 C1.925,0 0,1.936 0,4.4 L0,83.6 C0,86.064 1.925,88 4.375,88 L65.625,88 C68.075,88 70,86.064 70,83.6 L70,17.6 L52.5,0 L49.875,0" id="Shape" stroke="#444B54" stroke-width="5.25" stroke-linecap="round" stroke-linejoin="round"></path>
                            <path d="M48.125,57.2 L21.875,57.2 C21.875,64.504 27.7375,70.4 35,70.4 C42.2625,70.4 48.125,64.504 48.125,57.2 Z" id="Shape" fill="#C3DBEA" fill-rule="nonzero"></path>
                            <ellipse id="Oval" fill="#C3DBEA" fill-rule="nonzero" cx="21.525" cy="39.6" rx="6.5625" ry="6.6"></ellipse>
                            <path d="M51.7125,42.24 L43.8375,42.24 C42.35,42.24 41.2125,41.096 41.2125,39.6 C41.2125,38.104 42.35,36.96 43.8375,36.96 L51.7125,36.96 C53.2,36.96 54.3375,38.104 54.3375,39.6 C54.3375,41.096 53.1125,42.24 51.7125,42.24 Z" id="Shape" fill="#C3DBEA" fill-rule="nonzero"></path>
                        </g>
                    </g>
                </g>
            </g>
        </g>
    </g>
</svg>