<?xml version="1.0" encoding="UTF-8"?>
<svg width="30px" height="30px" viewBox="0 0 30 30" version="1.1" xmlns="http://www.w3.org/2000/svg" xmlns:xlink="http://www.w3.org/1999/xlink">
    <!-- Generator: Sketch 51.2 (57519) - http://www.bohemiancoding.com/sketch -->
    <title>logo-polar</title>
    <desc>Created with Sketch.</desc>
    <defs></defs>
    <g id="Page-1" stroke="none" stroke-width="1" fill="none" fill-rule="evenodd">
        <g id="sign-up" transform="translate(-60.000000, -60.000000)">
            <g id="header" transform="translate(60.000000, 60.000000)">
                <g id="logo-polar">
                    <path d="M15,12 L15,12 C16.6568542,12 18,13.3431458 18,15 L18,30 L12,30 L12,15 C12,13.3431458 13.3431458,12 15,12 Z" id="Rectangle-2" fill="#F39C12" fill-rule="nonzero" transform="translate(15.000000, 21.000000) scale(1, -1) translate(-15.000000, -21.000000) "></path>
                    <path d="M15,0 L15,0 C16.6568542,-3.04359188e-16 18,1.34314575 18,3 L18,18 L12,18 L12,3 C12,1.34314575 13.3431458,3.04359188e-16 15,0 Z" id="Rectangle-2" fill="#10AC84" fill-rule="nonzero"></path>
                    <path d="M21,6 L21,6 C22.6568542,6 24,7.34314575 24,9 L24,24 L18,24 L18,9 C18,7.34314575 19.3431458,6 21,6 Z" id="Rectangle-2" fill="#643FED" fill-rule="nonzero" transform="translate(21.000000, 15.000000) scale(1, -1) rotate(-270.000000) translate(-21.000000, -15.000000) "></path>
                    <path d="M9,6 L9,6 C10.6568542,6 12,7.34314575 12,9 L12,24 L6,24 L6,9 C6,7.34314575 7.34314575,6 9,6 Z" id="Rectangle-2" fill="#22AAED" fill-rule="nonzero" transform="translate(9.000000, 15.000000) rotate(-90.000000) translate(-9.000000, -15.000000) "></path>
                    <path d="M15,12 L12,12 L12,15 C12,13.3432036 13.3432036,12 15,12" id="Fill-14" fill="#10AC84"></path>
                    <path d="M18,12 L15,12 L15,15 C15,13.3432036 16.3432036,12 18,12" id="Fill-14" fill="#643FED" transform="translate(16.500000, 13.500000) scale(-1, 1) translate(-16.500000, -13.500000) "></path>
                    <path d="M15,15 L12,15 L12,18 C12,16.3432036 13.3432036,15 15,15" id="Fill-14" fill="#22AAED" transform="translate(13.500000, 16.500000) scale(1, -1) translate(-13.500000, -16.500000) "></path>
                    <path d="M18,15 L15,15 L15,18 C15,16.3432036 16.3432036,15 18,15" id="Fill-14" fill="#F39C12" transform="translate(16.500000, 16.500000) scale(-1, -1) translate(-16.500000, -16.500000) "></path>
                    <circle id="Oval" fill="#FFFFFF" fill-rule="nonzero" cx="15" cy="15" r="3"></circle>
                </g>
            </g>
        </g>
    </g>
</svg>