<?xml version="1.0" encoding="UTF-8"?>
<svg width="27px" height="30px" viewBox="0 0 27 30" version="1.1" xmlns="http://www.w3.org/2000/svg" xmlns:xlink="http://www.w3.org/1999/xlink">
    <!-- Generator: sketchtool 51.2 (57519) - http://www.bohemiancoding.com/sketch -->
    <title>330DFF1F-4EB0-464F-8389-FD54E7B368D9</title>
    <desc>Created with sketchtool.</desc>
    <defs></defs>
    <g id="Performance-Review" stroke="none" stroke-width="1" fill="none" fill-rule="evenodd">
        <g id="home" transform="translate(-449.000000, -15.000000)">
            <g id="header">
                <g id="navigation">
                    <g id="logo-sleekr" transform="translate(449.000000, 15.000000)">
                        <path d="M26.1436847,19.2241983 L26.1436847,1.73295868 C26.1270743,0.211438017 23.0793474,0.229289256 23.0793474,0.229289256 L13.5174696,0.124561983 L13.5174696,0.123966942 L13.5002864,0.124561983 L13.4825304,0.123966942 L13.4825304,0.124561983 L3.92065258,0.229289256 C3.92065258,0.229289256 0.873498513,0.211438017 0.856315313,1.73295868 L0.856315313,19.2241983 C0.856315313,19.2241983 0.721713583,23.8768264 3.66805955,25.7833388 C6.60352282,27.6827107 11.8002952,29.4035702 11.8002952,29.4035702 C11.8002952,29.4035702 12.9601611,29.8052231 13.4825304,29.8712727 L13.4825304,29.8760331 C13.4882581,29.875438 13.4945587,29.8742479 13.5002864,29.8736529 C13.5054413,29.8742479 13.5117419,29.875438 13.5174696,29.8760331 L13.5174696,29.8712727 C14.0398389,29.8052231 15.1997048,29.4035702 15.1997048,29.4035702 C15.1997048,29.4035702 20.3964772,27.6827107 23.3319405,25.7833388 C26.2782864,23.8768264 26.1436847,19.2241983 26.1436847,19.2241983" fill="#009F61"></path>
                        <path d="M19.4439521,20.544 C19.0865705,21.1482 18.6161282,21.6522 18.0320739,22.056 C17.4480196,22.461 16.7845472,22.7682 16.041105,22.9782 C15.2982144,23.1876 14.5354693,23.2932 13.7534211,23.2932 C13.0585123,23.2932 12.401658,23.2512 11.7845128,23.1666 C11.1662646,23.0826 10.5800042,22.941 10.0246287,22.7418 C9.46980466,22.542 8.94145336,22.272 8.43957478,21.9306 C7.93769619,21.5892 7.46449639,21.1614 7.02052687,20.6466 L9.07657452,17.9532 C10.5049982,19.6752 12.0304885,20.5368 13.6519424,20.5368 C14.0087725,20.5368 14.3418875,20.4966 14.6512874,20.418 C14.9601358,20.3394 15.2254145,20.2164 15.447675,20.0478 C15.669384,19.8804 15.8458687,19.665 15.9760263,19.4022 C16.1061838,19.14 16.1712626,18.825 16.1712626,18.4572 C16.1712626,18.195 16.1183171,17.958 16.0124263,17.748 C15.9059839,17.538 15.7664506,17.3544 15.5921719,17.1972 C15.4184447,17.0394 15.2254145,16.9002 15.0130812,16.7796 C14.800748,16.659 14.5884147,16.5564 14.3760815,16.4724 C13.9800937,16.2936 13.5868636,16.134 13.1958395,15.9918 C12.8048154,15.8502 12.4115853,15.69 12.0161491,15.5112 C11.7938886,15.4272 11.5258523,15.3198 11.2125918,15.1884 C10.8987798,15.057 10.5728345,14.8944 10.2347559,14.7 C9.89667722,14.5062 9.5635622,14.2776 9.23596233,14.0148 C8.90781095,13.7526 8.61054441,13.4376 8.34526573,13.0698 C8.07998705,12.702 7.86489622,12.2844 7.70109629,11.8176 C7.53674484,11.3502 7.45456912,10.812 7.45456912,10.203 C7.45456912,9.447 7.6238842,8.7846 7.96141134,8.2182 C8.29948999,7.6512 8.74842314,7.176 9.30821079,6.7926 C9.86799844,6.4092 10.5027921,6.1206 11.2125918,5.9262 C11.92184,5.7318 12.6531488,5.6346 13.4059667,5.6346 C14.6027541,5.6346 15.6914446,5.787 16.6709351,6.0912 C17.6504256,6.396 18.5460858,6.9054 19.3568128,7.6194 L17.6482195,10.4862 C17.3492984,10.161 17.0569955,9.8694 16.7724138,9.612 C16.4878321,9.3546 16.1861535,9.1344 15.8673778,8.9508 C15.5491537,8.7672 15.2011478,8.628 14.8250146,8.5332 C14.4483299,8.4384 14.0186998,8.391 13.5361242,8.391 C13.1307608,8.391 12.7833064,8.4438 12.493761,8.5488 C12.2042157,8.6538 11.9654097,8.7954 11.7767916,8.9742 C11.588725,9.153 11.4513978,9.3576 11.3642584,9.5886 C11.2776706,9.8196 11.2341009,10.0608 11.2341009,10.3128 C11.2341009,10.5966 11.2964221,10.8402 11.4221675,11.0454 C11.5479129,11.25 11.7095068,11.4288 11.9075006,11.5812 C12.104943,11.733 12.3294096,11.865 12.5803489,11.9748 C12.8312881,12.0852 13.0871911,12.1878 13.3480576,12.282 C13.7534211,12.4392 14.1609906,12.5946 14.5713177,12.747 C14.9816449,12.8994 15.3897659,13.0536 15.7951294,13.2114 C15.9975354,13.2954 16.2440625,13.395 16.5336079,13.5108 C16.8231532,13.6266 17.1220743,13.7736 17.4309226,13.9518 C17.7403225,14.1306 18.0464133,14.3484 18.3508495,14.6058 C18.6547343,14.8632 18.9271826,15.1728 19.1687462,15.5352 C19.4103097,15.8976 19.605546,16.3176 19.7555581,16.7952 C19.9044671,17.2728 19.9794731,17.8272 19.9794731,18.4572 C19.9794731,19.2444 19.8007823,19.9404 19.4439521,20.544" id="shape" fill="#FFFFFF"></path>
                    </g>
                </g>
            </g>
        </g>
    </g>
</svg>