<?xml version="1.0" encoding="UTF-8"?>
<svg width="20px" height="20px" viewBox="0 0 20 20" version="1.1" xmlns="http://www.w3.org/2000/svg" xmlns:xlink="http://www.w3.org/1999/xlink">
    <!-- Generator: Sketch 51.3 (57544) - http://www.bohemiancoding.com/sketch -->
    <title>icon / link</title>
    <desc>Created with Sketch.</desc>
    <defs>
        <path d="M10.8033009,8.86396103 C10.4127766,8.47343674 10.4127766,7.84027176 10.8033009,7.44974747 C11.1938252,7.05922318 11.8269901,7.05922318 12.2175144,7.44974747 C13.9748737,9.20710678 13.9748737,12.0563492 12.2175144,13.8137085 L8.68198052,17.3492424 C6.9246212,19.1066017 4.0753788,19.1066017 2.31801948,17.3492424 C0.560660172,15.5918831 0.560660172,12.7426407 2.31801948,10.9852814 C2.70854378,10.5947571 3.34170876,10.5947571 3.73223305,10.9852814 C4.12275734,11.3758057 4.12275734,12.0089706 3.73223305,12.3994949 C2.75592232,13.3758057 2.75592232,14.9587181 3.73223305,15.9350288 C4.70854378,16.9113396 6.29145622,16.9113396 7.26776695,15.9350288 L10.8033009,12.3994949 C11.7796116,11.4231842 11.7796116,9.84027176 10.8033009,8.86396103 Z M9,10.8033009 C9.39052429,11.1938252 9.39052429,11.8269901 9,12.2175144 C8.60947571,12.6080387 7.97631073,12.6080387 7.58578644,12.2175144 C5.82842712,10.4601551 5.82842712,7.6109127 7.58578644,5.85355339 L11.1213203,2.31801948 C12.8786797,0.560660172 15.7279221,0.560660172 17.4852814,2.31801948 C19.2426407,4.0753788 19.2426407,6.9246212 17.4852814,8.68198052 C17.0947571,9.07250481 16.4615921,9.07250481 16.0710678,8.68198052 C15.6805435,8.29145622 15.6805435,7.65829124 16.0710678,7.26776695 C17.0473785,6.29145622 17.0473785,4.70854378 16.0710678,3.73223305 C15.0947571,2.75592232 13.5118446,2.75592232 12.5355339,3.73223305 L9,7.26776695 C8.02368927,8.24407768 8.02368927,9.82699013 9,10.8033009 Z" id="path-1"></path>
    </defs>
    <g id="icon-/-link" stroke="none" stroke-width="1" fill="none" fill-rule="evenodd">
        <g id="icon-link">
            <mask id="mask-2" fill="white">
                <use xlink:href="#path-1"></use>
            </mask>
            <use id="Combined-Shape" fill="#8A8E91" fill-rule="nonzero" xlink:href="#path-1"></use>
            <g id="color-/-grey" mask="url(#mask-2)" fill="#8A8E91" fill-rule="nonzero">
                <rect x="0" y="0" width="20" height="20"></rect>
            </g>
        </g>
    </g>
</svg>