<?xml version="1.0" encoding="UTF-8"?>
<svg width="20px" height="20px" viewBox="0 0 20 20" version="1.1" xmlns="http://www.w3.org/2000/svg" xmlns:xlink="http://www.w3.org/1999/xlink">
    <!-- Generator: Sketch 51.3 (57544) - http://www.bohemiancoding.com/sketch -->
    <title>icon / calendar</title>
    <desc>Created with Sketch.</desc>
    <defs>
        <path d="M3,4 L3,17 L17,17 L17,4 L3,4 Z M3,2 L17,2 C18.1045695,2 19,2.8954305 19,4 L19,17 C19,18.1045695 18.1045695,19 17,19 L3,19 C1.8954305,19 1,18.1045695 1,17 L1,4 C1,2.8954305 1.8954305,2 3,2 Z M2,9 C1.44771525,9 1,8.55228475 1,8 C1,7.44771525 1.44771525,7 2,7 L11,7 C11.5522847,7 12,7.44771525 12,8 C12,8.55228475 11.5522847,9 11,9 L2,9 Z M18,7 C18.5522847,7 19,7.44771525 19,8 C19,8.55228475 18.5522847,9 18,9 L15,9 C14.4477153,9 14,8.55228475 14,8 C14,7.44771525 14.4477153,7 15,7 L18,7 Z M8,5.07692308 C8,5.58672438 7.55228475,6 7,6 C6.44771525,6 6,5.58672438 6,5.07692308 L6,0.923076923 C6,0.413275616 6.44771525,0 7,0 C7.55228475,0 8,0.413275616 8,0.923076923 L8,5.07692308 Z M14,5.07692308 C14,5.58672438 13.5522847,6 13,6 C12.4477153,6 12,5.58672438 12,5.07692308 L12,0.923076923 C12,0.413275616 12.4477153,0 13,0 C13.5522847,0 14,0.413275616 14,0.923076923 L14,5.07692308 Z" id="path-1"></path>
    </defs>
    <g id="icon-/-calendar" stroke="none" stroke-width="1" fill="none" fill-rule="evenodd" opacity="0.900000036">
        <g id="icon-calendar">
            <mask id="mask-2" fill="white">
                <use xlink:href="#path-1"></use>
            </mask>
            <use id="Combined-Shape" fill="#8A8E91" fill-rule="nonzero" xlink:href="#path-1"></use>
            <g id="color-/-grey" mask="url(#mask-2)" fill="#8A8E91" fill-rule="nonzero">
                <rect x="0" y="0" width="20" height="20"></rect>
            </g>
        </g>
    </g>
</svg>