<?xml version="1.0" encoding="UTF-8"?>
<svg width="20px" height="20px" viewBox="0 0 20 20" version="1.1" xmlns="http://www.w3.org/2000/svg" xmlns:xlink="http://www.w3.org/1999/xlink">
    <!-- Generator: Sketch 51.3 (57544) - http://www.bohemiancoding.com/sketch -->
    <title>icon / camera</title>
    <desc>Created with Sketch.</desc>
    <defs>
        <path d="M10,14 C7.790861,14 6,12.209139 6,10 C6,7.790861 7.790861,6 10,6 C12.209139,6 14,7.790861 14,10 C14,12.209139 12.209139,14 10,14 Z M10,12 C11.1045695,12 12,11.1045695 12,10 C12,8.8954305 11.1045695,8 10,8 C8.8954305,8 8,8.8954305 8,10 C8,11.1045695 8.8954305,12 10,12 Z M16,2 C18.209139,2 20,3.790861 20,6 L20,11 C20,11.5522847 19.5522847,12 19,12 C18.4477153,12 18,11.5522847 18,11 L18,6 C18,4.8954305 17.1045695,4 16,4 L14,4 C13.4477153,4 13,3.55228475 13,3 C13,2.44771525 12.5522847,2 12,2 L8,2 C7.44771525,2 7,2.44771525 7,3 C7,3.55228475 6.55228475,4 6,4 L4,4 C2.8954305,4 2,4.8954305 2,6 L2,14 C2,15.1045695 2.8954305,16 4,16 L16,16 C17.1045695,16 18,15.1045695 18,14 C18,13.4477153 18.4477153,13 19,13 C19.5522847,13 20,13.4477153 20,14 C20,16.209139 18.209139,18 16,18 L4,18 C1.790861,18 0,16.209139 0,14 L0,6 C0,3.790861 1.790861,2 4,2 L5.17070571,2 C5.58254212,0.834807627 6.69378117,0 8,0 L12,0 C13.3062188,0 14.4174579,0.834807627 14.8292943,2 L16,2 Z M15,8 C14.4477153,8 14,7.55228475 14,7 C14,6.44771525 14.4477153,6 15,6 L16,6 C16.5522847,6 17,6.44771525 17,7 C17,7.55228475 16.5522847,8 16,8 L15,8 Z" id="path-1"></path>
    </defs>
    <g id="icon-/-camera" stroke="none" stroke-width="1" fill="none" fill-rule="evenodd">
        <g id="icon-camera" transform="translate(0.000000, 1.000000)">
            <mask id="mask-2" fill="white">
                <use xlink:href="#path-1"></use>
            </mask>
            <use fill="#8A8E91" fill-rule="nonzero" xlink:href="#path-1"></use>
            <g id="color-/-grey" mask="url(#mask-2)" fill="#8A8E91" fill-rule="nonzero">
                <g transform="translate(0.000000, -2.000000)">
                    <rect x="0" y="0" width="20" height="20"></rect>
                </g>
            </g>
        </g>
    </g>
</svg>