<?xml version="1.0" encoding="UTF-8"?>
<svg width="20px" height="20px" viewBox="0 0 20 20" version="1.1" xmlns="http://www.w3.org/2000/svg" xmlns:xlink="http://www.w3.org/1999/xlink">
    <!-- Generator: Sketch 51.3 (57544) - http://www.bohemiancoding.com/sketch -->
    <title>icon / logout-white</title>
    <desc>Created with Sketch.</desc>
    <defs>
        <path d="M16.4524088,8.94446297 L12.1110884,8.94446297 C11.4974399,8.94446297 10.9999795,8.4470026 10.9999795,7.83335413 C10.9999795,7.21970567 11.4974399,6.7222453 12.1110884,6.7222453 L16.498915,6.7222453 L15,5 C14.6166568,4.52082105 14.6943471,3.82160873 15.173526,3.43826558 C15.652705,3.05492242 16.3519173,3.13261268 16.7352605,3.61179162 L19.7565214,7.13929086 C20.0811595,7.54508853 20.0811595,8.12170157 19.7565214,8.52749924 L16.666653,12 C16.2833099,12.4791789 15.5840976,12.5568692 15.1049186,12.173526 C14.6257397,11.7901829 14.5480494,11.0909706 14.9313926,10.6117916 L16.4524088,8.94446297 Z M8.8888707,15.611116 L8.8888707,17.8333337 C8.8888707,18.659312 8.01963637,19.1965284 7.28085889,18.8271396 L0.635735765,15.5045781 C0.495416864,15.4380603 0.371256877,15.3430089 0.270749719,15.2269177 C0.0991472304,15.0284679 0,14.7717682 0,14.5000072 L0,1.16670111 C0,0.789053767 0.181707318,0.471770086 0.449574486,0.273901644 C0.5270174,0.216424549 0.61219814,0.168784659 0.703268715,0.132829965 C0.848452637,0.0750878812 1.00643237,0.0473192074 1.16738917,0.0555922673 L11.1110884,0.0555922673 C11.7247368,0.0555922673 12.2221972,0.553052639 12.2221972,1.16670111 L12.2221972,4.02383812 C12.2221972,4.63748658 11.7247368,5.13494696 11.1110884,5.13494696 C10.4974399,5.13494696 9.99997954,4.63748658 9.99997954,4.02383812 L9.99997954,2.27780994 L5.81784141,2.27780994 L8.27466485,3.50622166 C8.65109077,3.69443463 8.8888707,4.07917064 8.8888707,4.50002762 L8.8888707,13.3888983 L9.99997954,13.3888983 L9.99997954,11.6428702 C9.99997954,11.0292217 10.4974399,10.5317613 11.1110884,10.5317613 C11.7247368,10.5317613 12.2221972,11.0292217 12.2221972,11.6428702 L12.2221972,14.5000072 C12.2221972,15.1136556 11.7247368,15.611116 11.1110884,15.611116 L8.8888707,15.611116 Z M2.22221768,2.96451297 L2.22221768,13.8133041 L6.66665303,16.0355218 L6.66665303,5.18673065 L2.22221768,2.96451297 Z" id="path-1"></path>
    </defs>
    <g id="icon-/-logout-white" stroke="none" stroke-width="1" fill="none" fill-rule="evenodd">
        <g id="icon-logout" transform="translate(0.000000, 1.000000)">
            <g id="color">
                <mask id="mask-2" fill="white">
                    <use xlink:href="#path-1"></use>
                </mask>
                <use id="Mask" fill="#8A8E91" fill-rule="nonzero" xlink:href="#path-1"></use>
                <g id="color/-white" mask="url(#mask-2)" fill="#FFFFFF" fill-rule="nonzero">
                    <g transform="translate(0.000000, -1.000000)">
                        <rect x="0" y="0" width="20" height="20"></rect>
                    </g>
                </g>
            </g>
        </g>
    </g>
</svg>