<?xml version="1.0" encoding="UTF-8"?>
<svg width="20px" height="20px" viewBox="0 0 20 20" version="1.1" xmlns="http://www.w3.org/2000/svg" xmlns:xlink="http://www.w3.org/1999/xlink">
    <!-- Generator: Sketch 51.3 (57544) - http://www.bohemiancoding.com/sketch -->
    <title>icon / invite-white</title>
    <desc>Created with Sketch.</desc>
    <defs>
        <path d="M2.5760671,8.51317822 C2.20694502,8.88742699 2,9.39195011 2,9.91760518 L2,15.9861351 C2,17.0907046 2.8954305,17.9861351 4,17.9861351 L16,17.9861351 C17.1045695,17.9861351 18,17.0907046 18,15.9861351 L18,9.91760518 C18,9.39195011 17.793055,8.88742699 17.4239329,8.51317822 L12.1358993,3.15169975 C10.972434,1.97207512 9.07298419,1.95897547 7.89335955,3.12244086 C7.88681281,3.12889792 6.11438199,4.92581037 2.5760671,8.51317822 Z M6.44016776,1.74727279 C6.46443807,1.72277827 6.46443807,1.72277827 6.48893258,1.69850796 C8.45497364,-0.240601028 11.6207233,-0.218768272 13.5598322,1.74727279 L18.8478658,7.10875125 C19.58611,7.8572488 20,8.86629503 20,9.91760518 L20,15.9861351 C20,18.1952741 18.209139,19.9861351 16,19.9861351 L4,19.9861351 C1.790861,19.9861351 -1.42108547e-14,18.1952741 -1.24344979e-14,15.9861351 L-1.19904087e-14,9.91760518 C-1.24344979e-14,8.86629503 0.413890044,7.8572488 1.15213421,7.10875125 L6.44016776,1.74727279 Z M6,12 L4,12 L4,6 C4,4.34314575 5.34314575,3 7,3 L13,3 C14.6568542,3 16,4.34314575 16,6 L16,12 L14,12 L14,6 C14,5.44771525 13.5522847,5 13,5 L7,5 C6.44771525,5 6,5.44771525 6,6 L6,12 Z M0.445299804,9.83205029 L1.5547002,8.16794971 L8.33589941,12.6887492 C9.34359765,13.360548 10.6564024,13.360548 11.6641006,12.6887492 L18.4452998,8.16794971 L19.5547002,9.83205029 L12.773501,14.3528498 C11.0940039,15.4725145 8.90599608,15.4725145 7.22649902,14.3528498 L0.445299804,9.83205029 Z M11,8 L12,8 C12.5522847,8 13,8.44771525 13,9 C13,9.55228475 12.5522847,10 12,10 L11,10 L11,11 C11,11.5522847 10.5522847,12 10,12 C9.44771525,12 9,11.5522847 9,11 L9,10 L8,10 C7.44771525,10 7,9.55228475 7,9 C7,8.44771525 7.44771525,8 8,8 L9,8 L9,7 C9,6.44771525 9.44771525,6 10,6 C10.5522847,6 11,6.44771525 11,7 L11,8 Z" id="path-1"></path>
    </defs>
    <g id="icon-/-invite-white" stroke="none" stroke-width="1" fill="none" fill-rule="evenodd">
        <g id="icon-invite">
            <mask id="mask-2" fill="white">
                <use xlink:href="#path-1"></use>
            </mask>
            <use id="Combined-Shape" fill="#8A8E91" fill-rule="nonzero" xlink:href="#path-1"></use>
            <g id="color/-white" mask="url(#mask-2)" fill="#FFFFFF" fill-rule="nonzero">
                <rect x="0" y="0" width="20" height="20"></rect>
            </g>
        </g>
    </g>
</svg>