<?xml version="1.0" encoding="UTF-8"?>
<svg width="20px" height="20px" viewBox="0 0 20 20" version="1.1" xmlns="http://www.w3.org/2000/svg" xmlns:xlink="http://www.w3.org/1999/xlink">
    <!-- Generator: Sketch 51.3 (57544) - http://www.bohemiancoding.com/sketch -->
    <title>icon / move-white</title>
    <desc>Created with Sketch.</desc>
    <defs>
        <path d="M2.34626797,3.76048153 L2.34311769,4.17909812 C2.33896161,4.73136724 1.88788987,5.17570064 1.33562076,5.17154456 C0.783351646,5.16738848 0.33901824,4.71631674 0.343174319,4.16404763 L0.364620928,1.3141739 C0.368777345,0.761859879 0.81991931,0.317508403 1.37223285,0.32172833 L4.17921336,0.343174939 C4.73148199,0.347394523 5.17576353,0.798517355 5.17154394,1.35078598 C5.16732436,1.90305462 4.71620153,2.34733615 4.1639329,2.34311657 L3.75419958,2.33998602 L7,5.58578644 L10.2426407,2.34314575 L9.82842712,2.34314575 C9.27614237,2.34314575 8.82842712,1.8954305 8.82842712,1.34314575 C8.82842712,0.790861001 9.27614237,0.343145751 9.82842712,0.343145751 L12.6568542,0.343145751 C13.209139,0.343145751 13.6568542,0.790861001 13.6568542,1.34314575 L13.6568542,4.17157288 C13.6568542,4.72385763 13.209139,5.17157288 12.6568542,5.17157288 C12.1045695,5.17157288 11.6568542,4.72385763 11.6568542,4.17157288 L11.6568542,3.75735931 L8.41421356,7 L11.6537325,10.239519 L11.6568828,9.82090188 C11.6610389,9.26863277 12.1121106,8.82429936 12.6643798,8.82845544 C13.2166489,8.83261152 13.6609823,9.28368326 13.6568262,9.83595237 L13.6353796,12.6858261 C13.6312232,13.2381401 13.1800812,13.6824916 12.6277677,13.6782717 L9.82078715,13.6568251 C9.26851852,13.6526055 8.82423699,13.2014826 8.82845657,12.649214 C8.83267615,12.0969454 9.28379899,11.6526639 9.83606762,11.6568834 L10.2458004,11.660014 L7,8.41421356 L3.75735931,11.6568542 L4.17157288,11.6568542 C4.72385763,11.6568542 5.17157288,12.1045695 5.17157288,12.6568542 C5.17157288,13.209139 4.72385763,13.6568542 4.17157288,13.6568542 L1.34314575,13.6568542 C0.790861001,13.6568542 0.343145751,13.209139 0.343145751,12.6568542 L0.343145751,9.82842712 C0.343145751,9.27614237 0.790861001,8.82842712 1.34314575,8.82842712 C1.8954305,8.82842712 2.34314575,9.27614237 2.34314575,9.82842712 L2.34314575,10.2426407 L5.58578644,7 L2.34626797,3.76048153 Z" id="path-1"></path>
    </defs>
    <g id="icon-/-move-white" stroke="none" stroke-width="1" fill="none" fill-rule="evenodd">
        <g id="icon-move" transform="translate(10.000000, 10.000000) rotate(45.000000) translate(-10.000000, -10.000000) translate(3.000000, 3.000000)">
            <g id="color" transform="translate(-0.000000, -0.000000)">
                <mask id="mask-2" fill="white">
                    <use xlink:href="#path-1"></use>
                </mask>
                <use id="Mask" fill="#8A8E91" fill-rule="nonzero" xlink:href="#path-1"></use>
                <g id="color/-white" mask="url(#mask-2)" fill="#FFFFFF" fill-rule="nonzero">
                    <g transform="translate(7.000000, 7.000000) rotate(45.000000) translate(-7.000000, -7.000000) translate(-3.000000, -3.000000)">
                        <rect x="0" y="0" width="20" height="20"></rect>
                    </g>
                </g>
            </g>
        </g>
    </g>
</svg>