<?xml version="1.0" encoding="UTF-8"?>
<svg width="20px" height="20px" viewBox="0 0 20 20" version="1.1" xmlns="http://www.w3.org/2000/svg" xmlns:xlink="http://www.w3.org/1999/xlink">
    <!-- Generator: Sketch 51.3 (57544) - http://www.bohemiancoding.com/sketch -->
    <title>icon / sync-blue</title>
    <desc>Created with Sketch.</desc>
    <defs>
        <path d="M4.67575224,16 C7.81706907,18.8063024 12.6414588,18.7015938 15.6571783,15.6858744 C17.6253025,13.7177502 18.4063987,10.9118575 17.8005079,8.24687607 C17.6780689,7.70833438 18.0153869,7.17250372 18.5539286,7.05006479 C19.0924703,6.92762585 19.6283009,7.26494379 19.7507399,7.80348548 C20.5074463,11.1318218 19.5306068,14.640873 17.0713918,17.100088 C13.1896427,20.9818371 6.91059326,21.0051895 3,17.1701453 L3,19 C3,19.5522847 2.55228475,20 2,20 C1.44771525,20 1,19.5522847 1,19 L1,15 C1,14.4477153 1.44771525,14 2,14 L6,14 C6.55228475,14 7,14.4477153 7,15 C7,15.5522847 6.55228475,16 6,16 L4.67575224,16 Z M15.2881009,4 C12.1455704,1.25215377 7.36624261,1.37582763 4.37104866,4.37102158 C2.40292447,6.33914576 1.62182821,9.14503845 2.22771905,11.8100199 C2.35015798,12.3485616 2.01284005,12.8843922 1.47429836,13.0068312 C0.935756664,13.1292701 0.399925999,12.7919522 0.277487068,12.2534105 C-0.479219339,8.92507412 0.497620143,5.41602297 2.9568351,2.95680801 C6.82925819,-0.915615075 13.0874763,-0.948159084 17,2.85917599 L17,1 C17,0.44771525 17.4477153,4.4408921e-14 18,4.4408921e-14 C18.5522847,4.35207426e-14 19,0.44771525 19,1 L19,5 C19,5.55228475 18.5522847,6 18,6 L14,6 C13.4477153,6 13,5.55228475 13,5 C13,4.44771525 13.4477153,4 14,4 L15.2881009,4 Z" id="path-1"></path>
    </defs>
    <g id="icon-/-sync-blue" stroke="none" stroke-width="1" fill="none" fill-rule="evenodd">
        <g id="icon-sync">
            <g id="color">
                <mask id="mask-2" fill="white">
                    <use xlink:href="#path-1"></use>
                </mask>
                <use id="Mask" fill="#8A8E91" fill-rule="nonzero" xlink:href="#path-1"></use>
                <g id="color-/-blue" mask="url(#mask-2)" fill="#4298FC" fill-rule="nonzero">
                    <rect x="0" y="0" width="20" height="20"></rect>
                </g>
            </g>
        </g>
    </g>
</svg>