<?xml version="1.0" encoding="UTF-8"?>
<svg width="20px" height="20px" viewBox="0 0 20 20" version="1.1" xmlns="http://www.w3.org/2000/svg" xmlns:xlink="http://www.w3.org/1999/xlink">
    <!-- Generator: Sketch 51.3 (57544) - http://www.bohemiancoding.com/sketch -->
    <title>icon / category</title>
    <desc>Created with Sketch.</desc>
    <defs>
        <path d="M9.70710678,13.2928932 C10.0976311,13.6834175 10.0976311,14.3165825 9.70710678,14.7071068 C9.31658249,15.0976311 8.68341751,15.0976311 8.29289322,14.7071068 L3.29289322,9.70710678 C2.90236893,9.31658249 2.90236893,8.68341751 3.29289322,8.29289322 L11.2928932,0.292893219 C11.4804296,0.10535684 11.7347835,0 12,0 L19,0 C19.5522847,0 20,0.44771525 20,1 L20,8 C20,8.26521649 19.8946432,8.5195704 19.7071068,8.70710678 L8.70710678,19.7071068 C8.31658249,20.0976311 7.68341751,20.0976311 7.29289322,19.7071068 L0.292893219,12.7071068 C-0.0976310729,12.3165825 -0.0976310729,11.6834175 0.292893219,11.2928932 L3.29289322,8.29289322 C3.68341751,7.90236893 4.31658249,7.90236893 4.70710678,8.29289322 C5.09763107,8.68341751 5.09763107,9.31658249 4.70710678,9.70710678 L2.41421356,12 L8,17.5857864 L18,7.58578644 L18,2 L12.4142136,2 L5.41421356,9 L9.70710678,13.2928932 Z M15,7 C13.8954305,7 13,6.1045695 13,5 C13,3.8954305 13.8954305,3 15,3 C16.1045695,3 17,3.8954305 17,5 C17,6.1045695 16.1045695,7 15,7 Z" id="path-1"></path>
    </defs>
    <g id="icon-/-category" stroke="none" stroke-width="1" fill="none" fill-rule="evenodd">
        <g id="icon-category">
            <mask id="mask-2" fill="white">
                <use xlink:href="#path-1"></use>
            </mask>
            <use id="Mask" fill="#C4CDD5" fill-rule="nonzero" xlink:href="#path-1"></use>
            <g id="color-/-grey" mask="url(#mask-2)" fill="#8A8E91" fill-rule="nonzero">
                <rect x="0" y="0" width="20" height="20"></rect>
            </g>
        </g>
    </g>
</svg>