<?xml version="1.0" encoding="UTF-8"?>
<svg width="20px" height="20px" viewBox="0 0 20 20" version="1.1" xmlns="http://www.w3.org/2000/svg" xmlns:xlink="http://www.w3.org/1999/xlink">
    <!-- Generator: Sketch 51.3 (57544) - http://www.bohemiancoding.com/sketch -->
    <title>icon / edit</title>
    <desc>Created with Sketch.</desc>
    <defs>
        <path d="M11.0017291,6.41 L4.87576115,12.535968 L3.58286793,16.4146476 L7.46154759,15.1217544 L17.5875155,4.99578644 L15.0017291,2.41 L12.4159427,4.99578644 L13.7088359,6.28867966 C14.0993602,6.67920395 14.0993602,7.31236893 13.7088359,7.70289322 C13.3183116,8.09341751 12.6851466,8.09341751 12.2946223,7.70289322 L11.0017291,6.41 Z M13.5875155,0.995786438 C14.3685641,0.214737854 15.6348941,0.214737854 16.4159427,0.995786438 L19.0017291,3.58157288 C19.7827777,4.36262146 19.7827777,5.62895142 19.0017291,6.41 L8.70883588,16.7028932 C8.59906103,16.8126681 8.4652353,16.8953769 8.31795687,16.9444697 L2.31795687,18.9444697 C1.53619884,19.2050557 0.792459795,18.4613167 1.05304581,17.6795587 L3.05304581,11.6795587 C3.10213862,11.5322802 3.18484746,11.3984545 3.29462232,11.2886797 L13.5875155,0.995786438 Z" id="path-1"></path>
    </defs>
    <g id="icon-/-edit" stroke="none" stroke-width="1" fill="none" fill-rule="evenodd">
        <mask id="mask-2" fill="white">
            <use xlink:href="#path-1"></use>
        </mask>
        <use id="Combined-Shape" fill="#FFFFFF" fill-rule="nonzero" xlink:href="#path-1"></use>
    </g>
</svg>