<?xml version="1.0" encoding="UTF-8"?>
<svg width="20px" height="20px" viewBox="0 0 20 20" version="1.1" xmlns="http://www.w3.org/2000/svg" xmlns:xlink="http://www.w3.org/1999/xlink">
    <!-- Generator: Sketch 51.3 (57544) - http://www.bohemiancoding.com/sketch -->
    <title>icon / search</title>
    <desc>Created with Sketch.</desc>
    <defs>
        <path d="M15.3198574,13.9056439 L18.7071068,17.2928932 C19.0976311,17.6834175 19.0976311,18.3165825 18.7071068,18.7071068 C18.3165825,19.0976311 17.6834175,19.0976311 17.2928932,18.7071068 L13.9056439,15.3198574 C12.5509601,16.3729184 10.8487115,17 9,17 C4.581722,17 1,13.418278 1,9 C1,4.581722 4.581722,1 9,1 C13.418278,1 17,4.581722 17,9 C17,10.8487115 16.3729184,12.5509601 15.3198574,13.9056439 Z M9,15 C12.3137085,15 15,12.3137085 15,9 C15,5.6862915 12.3137085,3 9,3 C5.6862915,3 3,5.6862915 3,9 C3,12.3137085 5.6862915,15 9,15 Z" id="path-1"></path>
    </defs>
    <g id="icon-/-search" stroke="none" stroke-width="1" fill="none" fill-rule="evenodd">
        <g id="icon-search">
            <mask id="mask-2" fill="white">
                <use xlink:href="#path-1"></use>
            </mask>
            <use id="Combined-Shape" fill="#8A8E91" fill-rule="nonzero" xlink:href="#path-1"></use>
            <g id="color-/-grey" mask="url(#mask-2)" fill="#8A8E91" fill-rule="nonzero">
                <rect x="0" y="0" width="20" height="20"></rect>
            </g>
        </g>
    </g>
</svg>