<?xml version="1.0" encoding="UTF-8"?>
<svg width="20px" height="20px" viewBox="0 0 20 20" version="1.1" xmlns="http://www.w3.org/2000/svg" xmlns:xlink="http://www.w3.org/1999/xlink">
    <!-- Generator: Sketch 51.3 (57544) - http://www.bohemiancoding.com/sketch -->
    <title>icon / link-blue</title>
    <desc>Created with Sketch.</desc>
    <defs>
        <path d="M9.80330086,7.86396103 C9.41277657,7.47343674 9.41277657,6.84027176 9.80330086,6.44974747 C10.1938252,6.05922318 10.8269901,6.05922318 11.2175144,6.44974747 C12.9748737,8.20710678 12.9748737,11.0563492 11.2175144,12.8137085 L7.68198052,16.3492424 C5.9246212,18.1066017 3.0753788,18.1066017 1.31801948,16.3492424 C-0.439339828,14.5918831 -0.439339828,11.7426407 1.31801948,9.98528137 C1.70854378,9.59475708 2.34170876,9.59475708 2.73223305,9.98528137 C3.12275734,10.3758057 3.12275734,11.0089706 2.73223305,11.3994949 C1.75592232,12.3758057 1.75592232,13.9587181 2.73223305,14.9350288 C3.70854378,15.9113396 5.29145622,15.9113396 6.26776695,14.9350288 L9.80330086,11.3994949 C10.7796116,10.4231842 10.7796116,8.84027176 9.80330086,7.86396103 Z M8,9.80330086 C8.39052429,10.1938252 8.39052429,10.8269901 8,11.2175144 C7.60947571,11.6080387 6.97631073,11.6080387 6.58578644,11.2175144 C4.82842712,9.46015511 4.82842712,6.6109127 6.58578644,4.85355339 L10.1213203,1.31801948 C11.8786797,-0.439339828 14.7279221,-0.439339828 16.4852814,1.31801948 C18.2426407,3.0753788 18.2426407,5.9246212 16.4852814,7.68198052 C16.0947571,8.07250481 15.4615921,8.07250481 15.0710678,7.68198052 C14.6805435,7.29145622 14.6805435,6.65829124 15.0710678,6.26776695 C16.0473785,5.29145622 16.0473785,3.70854378 15.0710678,2.73223305 C14.0947571,1.75592232 12.5118446,1.75592232 11.5355339,2.73223305 L8,6.26776695 C7.02368927,7.24407768 7.02368927,8.82699013 8,9.80330086 Z" id="path-1"></path>
    </defs>
    <g id="icon-/-link-blue" stroke="none" stroke-width="1" fill="none" fill-rule="evenodd">
        <g id="icon-link" transform="translate(1.000000, 1.000000)">
            <mask id="mask-2" fill="white">
                <use xlink:href="#path-1"></use>
            </mask>
            <use id="Combined-Shape" fill="#8A8E91" fill-rule="nonzero" xlink:href="#path-1"></use>
            <g id="color-/-blue" mask="url(#mask-2)" fill="#4298FC" fill-rule="nonzero">
                <g transform="translate(-1.000000, -1.000000)">
                    <rect x="0" y="0" width="20" height="20"></rect>
                </g>
            </g>
        </g>
    </g>
</svg>