<?xml version="1.0" encoding="UTF-8"?>
<svg width="20px" height="20px" viewBox="0 0 20 20" version="1.1" xmlns="http://www.w3.org/2000/svg" xmlns:xlink="http://www.w3.org/1999/xlink">
    <!-- Generator: Sketch 51.3 (57544) - http://www.bohemiancoding.com/sketch -->
    <title>icon / delete-white</title>
    <desc>Created with Sketch.</desc>
    <defs>
        <path d="M4,6 L4,15 L12,15 L12,6 C11.4477153,6 11,5.55228475 11,5 C11,4.44771525 11.4477153,4 12,4 L14,4 L14,2 L2,2 L2,4 L8,4 C8.55228475,4 9,4.44771525 9,5 C9,5.55228475 8.55228475,6 8,6 L4,6 Z M2,6 C0.8954305,6 0,5.1045695 0,4 L0,2 C0,0.8954305 0.8954305,0 2,0 L14,0 C15.1045695,0 16,0.8954305 16,2 L16,4 C16,5.1045695 15.1045695,6 14,6 L14,15 C14,16.1045695 13.1045695,17 12,17 L4,17 C2.8954305,17 2,16.1045695 2,15 L2,6 Z M5,8 C5,7.44771525 5.44771525,7 6,7 C6.55228475,7 7,7.44771525 7,8 L7,13 C7,13.5522847 6.55228475,14 6,14 C5.44771525,14 5,13.5522847 5,13 L5,8 Z M9,8 C9,7.44771525 9.44771525,7 10,7 C10.5522847,7 11,7.44771525 11,8 L11,13 C11,13.5522847 10.5522847,14 10,14 C9.44771525,14 9,13.5522847 9,13 L9,8 Z" id="path-1"></path>
    </defs>
    <g id="icon-/-delete-white" stroke="none" stroke-width="1" fill="none" fill-rule="evenodd">
        <g id="icon-delete" transform="translate(2.000000, 2.000000)">
            <g id="color">
                <mask id="mask-2" fill="white">
                    <use xlink:href="#path-1"></use>
                </mask>
                <use id="Mask" fill="#C4CDD5" fill-rule="nonzero" xlink:href="#path-1"></use>
                <g id="color/-white" mask="url(#mask-2)" fill="#FFFFFF" fill-rule="nonzero">
                    <g transform="translate(-2.000000, -2.000000)">
                        <rect x="0" y="0" width="20" height="20"></rect>
                    </g>
                </g>
            </g>
        </g>
    </g>
</svg>