<?xml version="1.0" encoding="UTF-8"?>
<svg width="20px" height="20px" viewBox="0 0 20 20" version="1.1" xmlns="http://www.w3.org/2000/svg" xmlns:xlink="http://www.w3.org/1999/xlink">
    <!-- Generator: Sketch 51.3 (57544) - http://www.bohemiancoding.com/sketch -->
    <title>icon / preview-white</title>
    <desc>Created with Sketch.</desc>
    <defs>
        <path d="M10,9.99989296 C12.0082867,9.99989296 13.6363247,8.37185493 13.6363247,6.36356825 C13.6363247,4.35528156 12.0082867,2.72724354 10,2.72724354 C7.99171332,2.72724354 6.36367529,4.35528156 6.36367529,6.36356825 C6.36367529,8.37185493 7.99171332,9.99989296 10,9.99989296 Z M5.87298199,9.93009539 C5.04586416,8.9738394 4.54551293,7.72713547 4.54551293,6.36356825 C4.54551293,5.00009407 5.04579588,3.75346724 5.87281267,2.79723687 C4.43354998,3.547615 3.14749965,4.73262132 2.00509199,6.36362199 C3.14754445,7.99468662 4.43365085,9.17972192 5.87298199,9.93009539 Z M14.127018,9.93009539 C15.5663492,9.17972192 16.8524555,7.99468662 17.994908,6.36362199 C16.8525003,4.73262132 15.56645,3.547615 14.1271873,2.79723687 C14.9542041,3.75346724 15.4544871,5.00009407 15.4544871,6.36356825 C15.4544871,7.72713547 14.9541358,8.9738394 14.127018,9.93009539 Z M19.8436993,6.87348595 C17.3274114,10.7470685 14.0218268,12.727244 10,12.727244 C5.97817317,12.727244 2.67258859,10.7470685 0.156300652,6.87348595 C0.132416229,6.83818693 0.111171621,6.80140782 0.0926344769,6.7634656 C0.036857254,6.64990278 0.00685723863,6.52900247 0.00104842375,6.40819596 C0.000394325496,6.39335978 1.48112897e-05,6.37849855 -1.02959226e-14,6.36362199 C0.000136545096,6.22647524 0.0312690935,6.09063072 0.0910692656,5.96699815 C0.0915842053,5.96592207 0.0921081937,5.9648499 0.0926344769,5.96377838 C0.111171621,5.92583616 0.132416229,5.88905706 0.156300652,5.85375803 C2.67258859,1.98017552 5.97817317,0 10,0 C14.0218268,0 17.3274114,1.98017552 19.8436993,5.85375803 C19.8675838,5.88905706 19.8888284,5.92583616 19.9073655,5.96377838 C19.9078918,5.9648499 19.9084158,5.96592207 19.9089375,5.96699489 C19.9687309,6.09063072 19.9998635,6.22647524 20,6.36362199 C19.9999852,6.37849855 19.9996057,6.39335978 19.9988644,6.40819176 C19.9931428,6.52900247 19.9631427,6.64990278 19.9073655,6.7634656 C19.8888284,6.80140782 19.8675838,6.83818693 19.8436993,6.87348595 Z M10,8.18173061 C11.0041433,8.18173061 11.8181624,7.36771159 11.8181624,6.36356825 C11.8181624,5.35942491 11.0041433,4.54540589 10,4.54540589 C8.99585666,4.54540589 8.18183764,5.35942491 8.18183764,6.36356825 C8.18183764,7.36771159 8.99585666,8.18173061 10,8.18173061 Z" id="path-1"></path>
    </defs>
    <g id="icon-/-preview-white" stroke="none" stroke-width="1" fill="none" fill-rule="evenodd">
        <g id="icon-preview" transform="translate(0.000000, 4.000000)">
            <g id="color">
                <mask id="mask-2" fill="white">
                    <use xlink:href="#path-1"></use>
                </mask>
                <use id="Mask" fill="#8A8E91" fill-rule="nonzero" xlink:href="#path-1"></use>
                <g id="color/-white" mask="url(#mask-2)" fill="#FFFFFF" fill-rule="nonzero">
                    <g transform="translate(0.000000, -4.000000)">
                        <rect x="0" y="0" width="20" height="20"></rect>
                    </g>
                </g>
            </g>
        </g>
    </g>
</svg>